<svg width="24" height="24" viewBox="0 0 24 24" fill="none" xmlns="http://www.w3.org/2000/svg">
<path d="M21.9871 18.73C21.941 19.0358 21.8246 19.3268 21.6471 19.58C21.4704 19.8288 21.2364 20.0314 20.9648 20.1707C20.6933 20.3099 20.3922 20.3817 20.0871 20.38H18.4361C18.3186 20.3796 18.203 20.3513 18.0986 20.2974C17.9943 20.2435 17.9043 20.1656 17.8361 20.07C17.767 19.9745 17.7212 19.8642 17.7021 19.748C17.683 19.6317 17.6912 19.5126 17.7261 19.4C18.0961 18.22 18.0161 16.89 14.6651 14.76C14.5285 14.6705 14.4239 14.54 14.3664 14.3872C14.3089 14.2344 14.3014 14.0673 14.3451 13.91C14.3919 13.755 14.487 13.6191 14.6165 13.522C14.746 13.4248 14.9032 13.3716 15.0651 13.37C16.4953 13.3895 17.8912 13.8116 19.0925 14.5881C20.2938 15.3646 21.2519 16.4639 21.8571 17.76C21.9801 18.0676 22.0247 18.4009 21.9871 18.73ZM19.4861 7.7C19.4834 8.87162 19.0168 9.99448 18.1882 10.8228C17.3596 11.6512 16.2367 12.1176 15.0651 12.12C14.9338 12.1176 14.8054 12.0813 14.6924 12.0145C14.5793 11.9478 14.4855 11.8529 14.4201 11.7391C14.3546 11.6253 14.3197 11.4965 14.3189 11.3652C14.318 11.2339 14.3511 11.1047 14.4151 10.99C15.027 10.0109 15.3515 8.87959 15.3515 7.725C15.3515 6.57041 15.027 5.43907 14.4151 4.46C14.3366 4.34791 14.2903 4.21651 14.2812 4.08C14.2721 3.9435 14.3005 3.8071 14.3633 3.68557C14.4261 3.56405 14.521 3.46202 14.6376 3.39053C14.7543 3.31904 14.8883 3.28082 15.0251 3.28C15.6105 3.27851 16.1901 3.39659 16.7283 3.62701C17.2666 3.85743 17.752 4.19533 18.1551 4.62C18.9777 5.45062 19.4412 6.571 19.4461 7.74L19.4861 7.7Z" fill="white"/>
<path d="M16.6751 18.7C16.7155 19.1895 16.6191 19.6807 16.3966 20.1186C16.1741 20.5565 15.8343 20.924 15.4151 21.18C14.9971 21.437 14.5151 21.572 14.0251 21.57H4.65206C4.16142 21.5722 3.67994 21.4371 3.26206 21.18C2.84187 20.9256 2.50167 20.5581 2.28029 20.1196C2.05891 19.6811 1.96527 19.1892 2.01006 18.7C2.04634 18.2119 2.21965 17.744 2.51006 17.35C3.30737 16.2892 4.33428 15.4224 5.51393 14.8146C6.69359 14.2067 7.99544 13.8736 9.32206 13.84C10.6532 13.8664 11.961 14.1953 13.1463 14.8016C14.3317 15.408 15.3636 16.276 16.1641 17.34C16.4551 17.7382 16.6325 18.2086 16.6751 18.7ZM14.2451 7.32C14.2424 8.62002 13.7254 9.86616 12.8069 10.7862C11.8884 11.7062 10.6431 12.2252 9.34306 12.23C8.61923 12.2282 7.90478 12.0662 7.251 11.7556C6.59722 11.4449 6.02032 10.9934 5.56173 10.4334C5.10315 9.87335 4.77424 9.21874 4.59863 8.51654C4.42302 7.81433 4.40507 7.08196 4.54606 6.372C4.68764 5.66186 4.98486 4.99193 5.41632 4.4104C5.84779 3.82886 6.40278 3.35019 7.04137 3.0088C7.67996 2.66742 8.38628 2.47181 9.10951 2.43605C9.83274 2.40029 10.5549 2.52527 11.2241 2.802C12.119 3.17149 12.8844 3.7978 13.4236 4.6019C13.9629 5.40599 14.2519 6.35182 14.2541 7.32H14.2451Z" fill="white"/>
</svg>
