<svg width="490" height="519" viewBox="0 0 490 519" fill="none" xmlns="http://www.w3.org/2000/svg">
<g filter="url(#filter0_d_25_927)">
<g clip-path="url(#clip0_25_927)">
<g clip-path="url(#clip1_25_927)">
<rect width="370" height="399" transform="translate(60 50)" fill="white" fill-opacity="0.25" style="mix-blend-mode:plus-lighter"/>
<rect width="370" height="399" transform="translate(60 50)" fill="white" fill-opacity="0.6" style="mix-blend-mode:color-dodge"/>
</g>
<path d="M357.25 68.9492C357.25 68.7799 357.279 68.6237 357.338 68.4805C357.403 68.3372 357.501 68.2005 357.631 68.0703L365.238 60.6289C365.46 60.4141 365.727 60.3066 366.039 60.3066C366.254 60.3066 366.446 60.3587 366.615 60.4629C366.791 60.5605 366.931 60.694 367.035 60.8633C367.139 61.0326 367.191 61.2246 367.191 61.4395C367.191 61.7454 367.071 62.0189 366.83 62.2598L359.975 68.9492L366.83 75.6387C367.071 75.8796 367.191 76.1562 367.191 76.4688C367.191 76.6771 367.139 76.8659 367.035 77.0352C366.931 77.2109 366.791 77.3477 366.615 77.4453C366.446 77.5495 366.254 77.6016 366.039 77.6016C365.727 77.6016 365.46 77.4909 365.238 77.2695L357.631 69.8281C357.501 69.6979 357.403 69.5612 357.338 69.418C357.279 69.2747 357.25 69.1185 357.25 68.9492Z" fill="#0088FF"/>
<path d="M412.76 68.9492C412.76 69.1185 412.727 69.2747 412.662 69.418C412.597 69.5612 412.499 69.6979 412.369 69.8281L404.762 77.2695C404.547 77.4909 404.28 77.6016 403.961 77.6016C403.753 77.6016 403.561 77.5495 403.385 77.4453C403.209 77.3477 403.069 77.2109 402.965 77.0352C402.867 76.8659 402.818 76.6771 402.818 76.4688C402.818 76.1562 402.936 75.8796 403.17 75.6387L410.025 68.9492L403.17 62.2598C402.936 62.0189 402.818 61.7454 402.818 61.4395C402.818 61.2246 402.867 61.0326 402.965 60.8633C403.069 60.694 403.209 60.5605 403.385 60.4629C403.561 60.3587 403.753 60.3066 403.961 60.3066C404.28 60.3066 404.547 60.4141 404.762 60.6289L412.369 68.0703C412.499 68.2005 412.597 68.3372 412.662 68.4805C412.727 68.6237 412.76 68.7799 412.76 68.9492Z" fill="#0088FF"/>
<path d="M76.5894 81L80.8394 69.022H82.6157V71.2466H81.9766L78.8306 81H76.5894ZM78.731 77.9038L79.2871 76.252H84.7822L85.3384 77.9038H78.731ZM85.2637 81L82.1177 71.2466V69.022H83.2466L87.5049 81H85.2637ZM88.9177 84.0132V71.9272H90.9846V73.3467H91.1257C91.2917 73.0202 91.5075 72.7407 91.7731 72.5083C92.0443 72.2759 92.3569 72.096 92.7111 71.9688C93.0653 71.8415 93.4554 71.7778 93.8815 71.7778C94.6397 71.7778 95.2954 71.9688 95.8488 72.3506C96.4077 72.7324 96.8394 73.2747 97.1437 73.9775C97.4536 74.6748 97.6086 75.5021 97.6086 76.4595V76.4761C97.6086 77.439 97.4564 78.269 97.152 78.9663C96.8477 79.6636 96.416 80.2031 95.8571 80.585C95.3037 80.9613 94.6452 81.1494 93.8815 81.1494C93.4665 81.1494 93.0791 81.0858 92.7194 80.9585C92.3597 80.8257 92.0443 80.6403 91.7731 80.4023C91.502 80.1644 91.2861 79.8822 91.1257 79.5557H90.9846V84.0132H88.9177ZM93.2341 79.4062C93.7044 79.4062 94.1084 79.29 94.446 79.0576C94.7835 78.8197 95.0436 78.4821 95.2262 78.0449C95.4089 77.6022 95.5002 77.0793 95.5002 76.4761V76.4595C95.5002 75.8452 95.4089 75.3195 95.2262 74.8823C95.0436 74.4451 94.7835 74.1104 94.446 73.8779C94.1084 73.64 93.7044 73.521 93.2341 73.521C92.7637 73.521 92.3569 73.64 92.0138 73.8779C91.6763 74.1104 91.4134 74.4451 91.2253 74.8823C91.0427 75.3195 90.9513 75.8424 90.9513 76.4512V76.4678C90.9513 77.0765 91.0427 77.6022 91.2253 78.0449C91.4134 78.4821 91.679 78.8197 92.0221 79.0576C92.3652 79.29 92.7692 79.4062 93.2341 79.4062ZM99.2621 81V71.9272H101.329V73.3218H101.47C101.625 72.8348 101.902 72.4557 102.3 72.1846C102.704 71.9134 103.205 71.7778 103.803 71.7778C103.958 71.7778 104.11 71.7889 104.259 71.811C104.414 71.8276 104.541 71.8498 104.641 71.8774V73.7285C104.475 73.6898 104.306 73.6621 104.135 73.6455C103.969 73.6234 103.794 73.6123 103.612 73.6123C103.152 73.6123 102.751 73.6981 102.408 73.8696C102.065 74.0412 101.799 74.2874 101.611 74.6084C101.423 74.9238 101.329 75.2974 101.329 75.729V81H99.2621ZM105.913 81V71.9272H107.971V81H105.913ZM106.95 70.4082C106.613 70.4082 106.322 70.2892 106.079 70.0513C105.835 69.8133 105.713 69.5283 105.713 69.1963C105.713 68.8532 105.835 68.5654 106.079 68.333C106.322 68.0951 106.613 67.9761 106.95 67.9761C107.288 67.9761 107.576 68.0951 107.814 68.333C108.057 68.5654 108.179 68.8532 108.179 69.1963C108.179 69.5283 108.057 69.8133 107.814 70.0513C107.576 70.2892 107.288 70.4082 106.95 70.4082ZM110.173 81V68.416H112.239V81H110.173ZM118.51 81V79.5557L122.436 75.5381C122.978 74.9902 123.399 74.5392 123.698 74.1851C124.002 73.8254 124.215 73.5099 124.337 73.2388C124.459 72.9621 124.52 72.6715 124.52 72.3672V72.3423C124.52 71.9771 124.439 71.6506 124.279 71.3628C124.118 71.075 123.889 70.8509 123.59 70.6904C123.291 70.5244 122.934 70.4414 122.519 70.4414C122.099 70.4414 121.728 70.5299 121.407 70.707C121.086 70.8786 120.837 71.1193 120.66 71.4292C120.483 71.7391 120.394 72.1016 120.394 72.5166L120.386 72.5498L118.394 72.5415L118.385 72.5166C118.385 71.7695 118.565 71.111 118.925 70.541C119.285 69.971 119.783 69.5256 120.419 69.2046C121.055 68.8836 121.791 68.7231 122.627 68.7231C123.402 68.7231 124.091 68.8698 124.694 69.1631C125.303 69.4564 125.779 69.8604 126.122 70.375C126.465 70.8896 126.636 71.4845 126.636 72.1597V72.1846C126.636 72.6328 126.551 73.0728 126.379 73.5044C126.207 73.9305 125.914 74.3981 125.499 74.9072C125.09 75.4163 124.522 76.0223 123.797 76.7251L120.834 79.6055L121.399 78.6592V79.6055L120.834 79.2319H126.819V81H118.51ZM133.154 81.2988C132.202 81.2988 131.386 81.0443 130.705 80.5352C130.03 80.026 129.51 79.3011 129.145 78.3604C128.78 77.4196 128.597 76.3045 128.597 75.0151V74.9985C128.597 73.7091 128.78 72.5968 129.145 71.6616C129.51 70.7209 130.03 69.9959 130.705 69.4868C131.386 68.9777 132.202 68.7231 133.154 68.7231C134.106 68.7231 134.922 68.9777 135.603 69.4868C136.283 69.9959 136.806 70.7209 137.172 71.6616C137.537 72.5968 137.719 73.7091 137.719 74.9985V75.0151C137.719 76.3045 137.537 77.4196 137.172 78.3604C136.806 79.3011 136.283 80.026 135.603 80.5352C134.922 81.0443 134.106 81.2988 133.154 81.2988ZM133.154 79.564C133.663 79.564 134.098 79.3813 134.457 79.0161C134.817 78.6509 135.091 78.1307 135.279 77.4556C135.473 76.7749 135.57 75.9614 135.57 75.0151V74.9985C135.57 74.0522 135.473 73.2415 135.279 72.5664C135.091 71.8857 134.817 71.3656 134.457 71.0059C134.098 70.6406 133.663 70.458 133.154 70.458C132.645 70.458 132.211 70.6406 131.851 71.0059C131.497 71.3656 131.223 71.8857 131.029 72.5664C130.841 73.2415 130.747 74.0522 130.747 74.9985V75.0151C130.747 75.9614 130.841 76.7749 131.029 77.4556C131.223 78.1307 131.497 78.6509 131.851 79.0161C132.211 79.3813 132.645 79.564 133.154 79.564ZM139.647 81V79.5557L143.573 75.5381C144.116 74.9902 144.536 74.5392 144.835 74.1851C145.139 73.8254 145.352 73.5099 145.474 73.2388C145.596 72.9621 145.657 72.6715 145.657 72.3672V72.3423C145.657 71.9771 145.576 71.6506 145.416 71.3628C145.255 71.075 145.026 70.8509 144.727 70.6904C144.428 70.5244 144.071 70.4414 143.656 70.4414C143.236 70.4414 142.865 70.5299 142.544 70.707C142.223 70.8786 141.974 71.1193 141.797 71.4292C141.62 71.7391 141.531 72.1016 141.531 72.5166L141.523 72.5498L139.531 72.5415L139.522 72.5166C139.522 71.7695 139.702 71.111 140.062 70.541C140.422 69.971 140.92 69.5256 141.556 69.2046C142.192 68.8836 142.928 68.7231 143.764 68.7231C144.539 68.7231 145.228 68.8698 145.831 69.1631C146.44 69.4564 146.916 69.8604 147.259 70.375C147.602 70.8896 147.773 71.4845 147.773 72.1597V72.1846C147.773 72.6328 147.688 73.0728 147.516 73.5044C147.345 73.9305 147.051 74.3981 146.636 74.9072C146.227 75.4163 145.659 76.0223 144.935 76.7251L141.971 79.6055L142.536 78.6592V79.6055L141.971 79.2319H147.956V81H139.647ZM154.225 81.2988C153.411 81.2988 152.695 81.1466 152.075 80.8423C151.455 80.5379 150.963 80.1257 150.597 79.6055C150.232 79.0798 150.022 78.4904 149.966 77.8374L149.958 77.7295H151.925L151.942 77.7876C151.997 78.1141 152.127 78.4102 152.332 78.6758C152.537 78.9414 152.803 79.1545 153.129 79.3149C153.456 79.4699 153.824 79.5474 154.233 79.5474C154.698 79.5474 155.107 79.445 155.462 79.2402C155.821 79.0355 156.101 78.7533 156.3 78.3936C156.499 78.0283 156.599 77.6133 156.599 77.1484V77.1318C156.599 76.667 156.496 76.2575 156.292 75.9033C156.092 75.5436 155.816 75.2642 155.462 75.0649C155.113 74.8602 154.709 74.7578 154.25 74.7578C153.912 74.7578 153.599 74.8076 153.312 74.9072C153.029 75.0068 152.778 75.1562 152.556 75.3555C152.446 75.4495 152.343 75.5547 152.249 75.6709C152.155 75.7816 152.072 75.9033 152 76.0361H150.166L150.747 69.022H157.935V70.7734H152.415L152.075 74.4258H152.224C152.39 74.1546 152.601 73.925 152.855 73.7368C153.11 73.5431 153.4 73.3965 153.727 73.2969C154.053 73.1917 154.402 73.1392 154.773 73.1392C155.525 73.1392 156.189 73.3107 156.765 73.6538C157.346 73.9914 157.802 74.459 158.134 75.0566C158.466 75.6488 158.632 76.3267 158.632 77.0903V77.1069C158.632 77.937 158.444 78.6675 158.068 79.2983C157.697 79.9237 157.18 80.4134 156.516 80.7676C155.852 81.1217 155.088 81.2988 154.225 81.2988Z" fill="black"/>
<path d="M172.621 74.7119C172.621 74.8633 172.591 75.0049 172.533 75.1367C172.479 75.2637 172.389 75.3906 172.262 75.5176L167.948 79.7656C167.762 79.9512 167.535 80.0439 167.267 80.0439C166.993 80.0439 166.759 79.9487 166.563 79.7583C166.368 79.5679 166.271 79.3359 166.271 79.0625C166.271 78.7891 166.378 78.5474 166.593 78.3374L170.299 74.7046L166.593 71.0864C166.378 70.8765 166.271 70.6348 166.271 70.3613C166.271 70.0879 166.368 69.856 166.563 69.6655C166.759 69.4751 166.993 69.3799 167.267 69.3799C167.535 69.3799 167.762 69.4727 167.948 69.6582L172.262 73.9062C172.501 74.1406 172.621 74.4092 172.621 74.7119Z" fill="#0088FF"/>
<path d="M82.1929 105.229C81.4819 105.229 80.8641 105.118 80.3394 104.898C79.8188 104.678 79.4084 104.372 79.1079 103.978C78.8075 103.584 78.6382 103.125 78.6001 102.601L78.5938 102.512H80.1807L80.187 102.575C80.2124 102.833 80.314 103.058 80.4917 103.248C80.6737 103.438 80.9149 103.589 81.2153 103.699C81.5158 103.805 81.8586 103.857 82.2437 103.857C82.6118 103.857 82.9377 103.8 83.2212 103.686C83.5047 103.572 83.7269 103.415 83.8877 103.216C84.0485 103.013 84.1289 102.78 84.1289 102.518V102.512C84.1289 102.182 83.9998 101.913 83.7417 101.706C83.4836 101.494 83.0583 101.325 82.4658 101.198L81.4819 100.995C80.8599 100.863 80.3499 100.679 79.9521 100.442C79.5586 100.201 79.2666 99.9071 79.0762 99.5601C78.89 99.2131 78.7969 98.8132 78.7969 98.3604V98.354C78.7969 97.8081 78.9408 97.3299 79.2285 96.9194C79.5205 96.509 79.9204 96.1895 80.4282 95.9609C80.9403 95.7282 81.5264 95.6118 82.1865 95.6118C82.8636 95.6118 83.4497 95.7261 83.9448 95.9546C84.4399 96.1789 84.8293 96.4857 85.1128 96.875C85.3963 97.2643 85.555 97.7044 85.5889 98.1953L85.5952 98.2778H84.0337L84.021 98.2017C83.9829 97.9604 83.8835 97.751 83.7227 97.5732C83.5661 97.3913 83.3566 97.2474 83.0942 97.1416C82.8319 97.0358 82.5251 96.9829 82.1738 96.9829C81.8395 96.9829 81.5412 97.0358 81.2788 97.1416C81.0164 97.2432 80.8091 97.387 80.6567 97.5732C80.5086 97.7594 80.4346 97.9837 80.4346 98.2461V98.2524C80.4346 98.4683 80.4896 98.6587 80.5996 98.8237C80.7096 98.9888 80.8831 99.1305 81.1201 99.249C81.3571 99.3633 81.666 99.4627 82.0469 99.5474L83.0308 99.7568C83.674 99.8923 84.1966 100.072 84.5986 100.296C85.0007 100.521 85.2948 100.8 85.481 101.134C85.6714 101.464 85.7666 101.862 85.7666 102.328V102.334C85.7666 102.926 85.6206 103.438 85.3286 103.87C85.0409 104.302 84.6283 104.636 84.0908 104.873C83.5576 105.11 82.925 105.229 82.1929 105.229ZM91.3652 105.229C90.5951 105.229 89.9285 105.087 89.3657 104.803C88.8029 104.52 88.367 104.124 88.0581 103.616C87.7534 103.108 87.6011 102.518 87.6011 101.845V95.8403H89.2324V101.712C89.2324 102.131 89.3149 102.499 89.48 102.816C89.6493 103.13 89.8926 103.375 90.21 103.553C90.5273 103.726 90.9146 103.813 91.3716 103.813C91.8244 103.813 92.2095 103.726 92.5269 103.553C92.8442 103.375 93.0854 103.13 93.2505 102.816C93.4155 102.499 93.498 102.131 93.498 101.712V95.8403H95.1294V101.845C95.1294 102.518 94.9771 103.108 94.6724 103.616C94.3677 104.124 93.9339 104.52 93.3711 104.803C92.8125 105.087 92.1439 105.229 91.3652 105.229ZM97.3828 105V95.8403H98.8047L103.718 102.728L102.588 102.15H103.407V95.8403H104.981V105H103.565L98.6523 98.1064L99.7822 98.6841H98.9634V105H97.3828Z" fill="#3C3C43" fill-opacity="0.3"/>
<path d="M128.305 105V95.8403H130.184L132.939 102.893H133.047L135.795 95.8403H137.674V105H136.202V98.4873H135.402L137.027 96.0942L133.548 105H132.431L128.959 96.0942L130.584 98.4873H129.778V105H128.305ZM143.882 105.229C142.985 105.229 142.213 105.034 141.565 104.645C140.922 104.251 140.425 103.694 140.074 102.975C139.722 102.256 139.547 101.405 139.547 100.423V100.411C139.547 99.4246 139.722 98.5741 140.074 97.8589C140.429 97.1395 140.931 96.5851 141.578 96.1958C142.23 95.8065 142.998 95.6118 143.882 95.6118C144.771 95.6118 145.539 95.8065 146.187 96.1958C146.834 96.5851 147.333 97.1395 147.685 97.8589C148.036 98.5783 148.211 99.4289 148.211 100.411V100.423C148.211 101.405 148.036 102.256 147.685 102.975C147.338 103.694 146.84 104.251 146.193 104.645C145.545 105.034 144.775 105.229 143.882 105.229ZM143.882 103.813C144.428 103.813 144.9 103.673 145.298 103.394C145.696 103.115 146.002 102.721 146.218 102.213C146.438 101.706 146.548 101.109 146.548 100.423V100.411C146.548 99.7209 146.438 99.1242 146.218 98.6206C146.002 98.1128 145.696 97.7214 145.298 97.4463C144.9 97.167 144.428 97.0273 143.882 97.0273C143.341 97.0273 142.869 97.167 142.467 97.4463C142.069 97.7214 141.76 98.1128 141.54 98.6206C141.324 99.1242 141.216 99.7209 141.216 100.411V100.423C141.216 101.109 141.322 101.706 141.534 102.213C141.75 102.721 142.056 103.115 142.454 103.394C142.856 103.673 143.332 103.813 143.882 103.813ZM150.09 105V95.8403H151.512L156.425 102.728L155.295 102.15H156.114V95.8403H157.688V105H156.273L151.36 98.1064L152.49 98.6841H151.671V105H150.09Z" fill="#3C3C43" fill-opacity="0.3"/>
<path d="M181.762 105L179.305 95.8403H181.006L182.581 102.715H182.669L184.479 95.8403H185.932L187.76 102.715H187.849L189.417 95.8403H191.105L188.655 105H187.119L185.253 98.4429H185.158L183.304 105H181.762ZM192.8 105V95.8403H198.729V97.2178H194.438V99.6997H198.494V101.001H194.438V103.623H198.729V105H192.8ZM200.76 105V95.8403H204.194C205.104 95.8403 205.879 96.0181 206.518 96.3735C207.161 96.729 207.652 97.2453 207.99 97.9224C208.333 98.5994 208.504 99.4162 208.504 100.373V100.385C208.504 101.363 208.335 102.196 207.997 102.886C207.658 103.572 207.167 104.097 206.524 104.46C205.885 104.82 205.108 105 204.194 105H200.76ZM202.398 103.623H203.979C204.584 103.623 205.1 103.498 205.527 103.248C205.955 102.998 206.278 102.634 206.499 102.156C206.723 101.678 206.835 101.096 206.835 100.411V100.398C206.835 99.7293 206.721 99.158 206.492 98.6841C206.268 98.2059 205.942 97.842 205.515 97.5923C205.087 97.3426 204.575 97.2178 203.979 97.2178H202.398V103.623Z" fill="#3C3C43" fill-opacity="0.3"/>
<path d="M234.298 105V97.2178H231.479V95.8403H238.754V97.2178H235.936V105H234.298ZM240.474 105V95.8403H242.112V99.6489H246.568V95.8403H248.199V105H246.568V101.026H242.112V105H240.474ZM254.223 105.229C253.453 105.229 252.786 105.087 252.224 104.803C251.661 104.52 251.225 104.124 250.916 103.616C250.611 103.108 250.459 102.518 250.459 101.845V95.8403H252.09V101.712C252.09 102.131 252.173 102.499 252.338 102.816C252.507 103.13 252.75 103.375 253.068 103.553C253.385 103.726 253.772 103.813 254.229 103.813C254.682 103.813 255.067 103.726 255.385 103.553C255.702 103.375 255.943 103.13 256.108 102.816C256.273 102.499 256.356 102.131 256.356 101.712V95.8403H257.987V101.845C257.987 102.518 257.835 103.108 257.53 103.616C257.226 104.124 256.792 104.52 256.229 104.803C255.67 105.087 255.002 105.229 254.223 105.229Z" fill="#3C3C43" fill-opacity="0.3"/>
<path d="M286.936 105V95.8403H292.775V97.2178H288.573V99.9282H292.414V101.261H288.573V105H286.936ZM294.591 105V95.8403H298.292C298.947 95.8403 299.51 95.9567 299.98 96.1895C300.45 96.4222 300.809 96.7502 301.059 97.1733C301.309 97.5965 301.434 98.1001 301.434 98.6841V98.6968C301.434 99.3019 301.281 99.8394 300.977 100.309C300.676 100.775 300.255 101.105 299.713 101.299L301.713 105H299.847L298.044 101.553C298.035 101.553 298.023 101.553 298.006 101.553C297.989 101.553 297.974 101.553 297.961 101.553H296.229V105H294.591ZM296.229 100.296H298.12C298.641 100.296 299.045 100.159 299.333 99.8838C299.62 99.6087 299.764 99.2257 299.764 98.7349V98.7222C299.764 98.244 299.614 97.8652 299.313 97.5859C299.017 97.3024 298.609 97.1606 298.088 97.1606H296.229V100.296ZM303.427 105V95.8403H305.064V105H303.427Z" fill="#3C3C43" fill-opacity="0.3"/>
<path d="M338.672 105.229C337.961 105.229 337.343 105.118 336.818 104.898C336.298 104.678 335.887 104.372 335.587 103.978C335.286 103.584 335.117 103.125 335.079 102.601L335.073 102.512H336.66L336.666 102.575C336.691 102.833 336.793 103.058 336.971 103.248C337.153 103.438 337.394 103.589 337.694 103.699C337.995 103.805 338.338 103.857 338.723 103.857C339.091 103.857 339.417 103.8 339.7 103.686C339.984 103.572 340.206 103.415 340.367 103.216C340.528 103.013 340.608 102.78 340.608 102.518V102.512C340.608 102.182 340.479 101.913 340.221 101.706C339.963 101.494 339.537 101.325 338.945 101.198L337.961 100.995C337.339 100.863 336.829 100.679 336.431 100.442C336.038 100.201 335.746 99.9071 335.555 99.5601C335.369 99.2131 335.276 98.8132 335.276 98.3604V98.354C335.276 97.8081 335.42 97.3299 335.708 96.9194C336 96.509 336.399 96.1895 336.907 95.9609C337.419 95.7282 338.005 95.6118 338.666 95.6118C339.343 95.6118 339.929 95.7261 340.424 95.9546C340.919 96.1789 341.308 96.4857 341.592 96.875C341.875 97.2643 342.034 97.7044 342.068 98.1953L342.074 98.2778H340.513L340.5 98.2017C340.462 97.9604 340.362 97.751 340.202 97.5732C340.045 97.3913 339.836 97.2474 339.573 97.1416C339.311 97.0358 339.004 96.9829 338.653 96.9829C338.319 96.9829 338.02 97.0358 337.758 97.1416C337.495 97.2432 337.288 97.387 337.136 97.5732C336.988 97.7594 336.914 97.9837 336.914 98.2461V98.2524C336.914 98.4683 336.969 98.6587 337.079 98.8237C337.189 98.9888 337.362 99.1305 337.599 99.249C337.836 99.3633 338.145 99.4627 338.526 99.5474L339.51 99.7568C340.153 99.8923 340.676 100.072 341.078 100.296C341.48 100.521 341.774 100.8 341.96 101.134C342.15 101.464 342.246 101.862 342.246 102.328V102.334C342.246 102.926 342.1 103.438 341.808 103.87C341.52 104.302 341.107 104.636 340.57 104.873C340.037 105.11 339.404 105.229 338.672 105.229ZM343.407 105L346.657 95.8403H348.016V97.5415H347.527L345.121 105H343.407ZM345.045 102.632L345.47 101.369H349.672L350.098 102.632H345.045ZM350.041 105L347.635 97.5415V95.8403H348.498L351.754 105H350.041ZM354.592 105V97.2178H351.773V95.8403H359.048V97.2178H356.229V105H354.592Z" fill="#3C3C43" fill-opacity="0.3"/>
<path d="M388.193 105.229C387.482 105.229 386.864 105.118 386.339 104.898C385.819 104.678 385.408 104.372 385.108 103.978C384.807 103.584 384.638 103.125 384.6 102.601L384.594 102.512H386.181L386.187 102.575C386.212 102.833 386.314 103.058 386.492 103.248C386.674 103.438 386.915 103.589 387.215 103.699C387.516 103.805 387.859 103.857 388.244 103.857C388.612 103.857 388.938 103.8 389.221 103.686C389.505 103.572 389.727 103.415 389.888 103.216C390.049 103.013 390.129 102.78 390.129 102.518V102.512C390.129 102.182 390 101.913 389.742 101.706C389.484 101.494 389.058 101.325 388.466 101.198L387.482 100.995C386.86 100.863 386.35 100.679 385.952 100.442C385.559 100.201 385.267 99.9071 385.076 99.5601C384.89 99.2131 384.797 98.8132 384.797 98.3604V98.354C384.797 97.8081 384.941 97.3299 385.229 96.9194C385.521 96.509 385.92 96.1895 386.428 95.9609C386.94 95.7282 387.526 95.6118 388.187 95.6118C388.864 95.6118 389.45 95.7261 389.945 95.9546C390.44 96.1789 390.829 96.4857 391.113 96.875C391.396 97.2643 391.555 97.7044 391.589 98.1953L391.595 98.2778H390.034L390.021 98.2017C389.983 97.9604 389.883 97.751 389.723 97.5732C389.566 97.3913 389.357 97.2474 389.094 97.1416C388.832 97.0358 388.525 96.9829 388.174 96.9829C387.84 96.9829 387.541 97.0358 387.279 97.1416C387.016 97.2432 386.809 97.387 386.657 97.5732C386.509 97.7594 386.435 97.9837 386.435 98.2461V98.2524C386.435 98.4683 386.49 98.6587 386.6 98.8237C386.71 98.9888 386.883 99.1305 387.12 99.249C387.357 99.3633 387.666 99.4627 388.047 99.5474L389.031 99.7568C389.674 99.8923 390.197 100.072 390.599 100.296C391.001 100.521 391.295 100.8 391.481 101.134C391.671 101.464 391.767 101.862 391.767 102.328V102.334C391.767 102.926 391.621 103.438 391.329 103.87C391.041 104.302 390.628 104.636 390.091 104.873C389.558 105.11 388.925 105.229 388.193 105.229ZM397.365 105.229C396.595 105.229 395.929 105.087 395.366 104.803C394.803 104.52 394.367 104.124 394.058 103.616C393.753 103.108 393.601 102.518 393.601 101.845V95.8403H395.232V101.712C395.232 102.131 395.315 102.499 395.48 102.816C395.649 103.13 395.893 103.375 396.21 103.553C396.527 103.726 396.915 103.813 397.372 103.813C397.824 103.813 398.209 103.726 398.527 103.553C398.844 103.375 399.085 103.13 399.25 102.816C399.416 102.499 399.498 102.131 399.498 101.712V95.8403H401.129V101.845C401.129 102.518 400.977 103.108 400.672 103.616C400.368 104.124 399.934 104.52 399.371 104.803C398.812 105.087 398.144 105.229 397.365 105.229ZM403.383 105V95.8403H404.805L409.718 102.728L408.588 102.15H409.407V95.8403H410.981V105H409.565L404.652 98.1064L405.782 98.6841H404.963V105H403.383Z" fill="#3C3C43" fill-opacity="0.3"/>
<path d="M196.361 142V129.842H196.234L192.611 132.439V130.604L196.361 127.908H198.109V142H196.361Z" fill="#0088FF"/>
<path d="M240.527 142V140.789L245.332 135.633C245.944 134.975 246.419 134.435 246.758 134.012C247.096 133.582 247.331 133.195 247.461 132.85C247.598 132.505 247.666 132.127 247.666 131.717V131.697C247.666 131.209 247.555 130.773 247.334 130.389C247.119 129.998 246.813 129.692 246.416 129.471C246.019 129.243 245.55 129.129 245.01 129.129C244.443 129.129 243.942 129.246 243.506 129.48C243.076 129.715 242.741 130.04 242.5 130.457C242.259 130.867 242.139 131.342 242.139 131.883L242.129 131.912L240.439 131.902L240.43 131.883C240.436 131.056 240.638 130.32 241.035 129.676C241.439 129.025 241.992 128.517 242.695 128.152C243.398 127.781 244.196 127.596 245.088 127.596C245.915 127.596 246.657 127.768 247.314 128.113C247.979 128.458 248.499 128.927 248.877 129.52C249.261 130.112 249.453 130.786 249.453 131.541V131.561C249.453 132.088 249.359 132.599 249.17 133.094C248.981 133.582 248.652 134.129 248.184 134.734C247.715 135.333 247.051 136.072 246.191 136.951L242.5 140.76L242.959 139.891V140.76L242.51 140.418H249.688V142H240.527Z" fill="black"/>
<path d="M294.059 142.234C293.089 142.234 292.242 142.068 291.52 141.736C290.797 141.404 290.224 140.949 289.801 140.369C289.384 139.79 289.143 139.129 289.078 138.387L289.068 138.27H290.758L290.768 138.367C290.82 138.829 290.986 139.236 291.266 139.588C291.552 139.939 291.933 140.216 292.408 140.418C292.883 140.613 293.434 140.711 294.059 140.711C294.677 140.711 295.217 140.604 295.68 140.389C296.148 140.174 296.513 139.878 296.773 139.5C297.034 139.116 297.164 138.676 297.164 138.182V138.162C297.164 137.296 296.874 136.632 296.295 136.17C295.722 135.701 294.941 135.467 293.951 135.467H292.184V133.982H293.873C294.433 133.982 294.928 133.878 295.357 133.67C295.787 133.455 296.122 133.165 296.363 132.801C296.604 132.43 296.725 132.01 296.725 131.541V131.521C296.725 131.027 296.62 130.607 296.412 130.262C296.204 129.917 295.898 129.653 295.494 129.471C295.097 129.288 294.612 129.197 294.039 129.197C293.486 129.197 292.991 129.292 292.555 129.48C292.125 129.663 291.78 129.926 291.52 130.271C291.259 130.617 291.103 131.027 291.051 131.502L291.041 131.6H289.352L289.361 131.502C289.439 130.734 289.68 130.063 290.084 129.49C290.494 128.917 291.035 128.471 291.705 128.152C292.382 127.833 293.16 127.674 294.039 127.674C294.938 127.674 295.719 127.83 296.383 128.143C297.053 128.449 297.571 128.875 297.936 129.422C298.307 129.962 298.492 130.59 298.492 131.307V131.326C298.492 131.906 298.365 132.42 298.111 132.869C297.857 133.318 297.506 133.693 297.057 133.992C296.607 134.292 296.09 134.503 295.504 134.627V134.666C296.533 134.751 297.363 135.099 297.994 135.711C298.632 136.316 298.951 137.12 298.951 138.123V138.143C298.951 138.924 298.74 139.624 298.316 140.242C297.893 140.861 297.314 141.349 296.578 141.707C295.842 142.059 295.003 142.234 294.059 142.234Z" fill="black"/>
<path d="M344.621 142V139.08H337.707V137.479C338.098 136.84 338.492 136.196 338.889 135.545C339.292 134.894 339.696 134.243 340.1 133.592C340.51 132.941 340.92 132.296 341.33 131.658C341.74 131.014 342.15 130.379 342.561 129.754C342.971 129.122 343.374 128.507 343.771 127.908H346.34V137.508H348.332V139.08H346.34V142H344.621ZM339.484 137.518H344.631V129.51H344.523C344.198 129.998 343.866 130.503 343.527 131.023C343.195 131.538 342.857 132.062 342.512 132.596C342.167 133.13 341.822 133.667 341.477 134.207C341.138 134.747 340.799 135.288 340.461 135.828C340.129 136.362 339.803 136.893 339.484 137.42V137.518Z" fill="black"/>
<path d="M392.049 142.312C391.17 142.312 390.385 142.14 389.695 141.795C389.012 141.45 388.462 140.978 388.045 140.379C387.628 139.78 387.384 139.106 387.312 138.357L387.303 138.25H389.002L389.012 138.328C389.07 138.777 389.236 139.188 389.51 139.559C389.783 139.93 390.138 140.223 390.574 140.438C391.017 140.652 391.515 140.76 392.068 140.76C392.693 140.76 393.243 140.623 393.719 140.35C394.201 140.07 394.575 139.686 394.842 139.197C395.115 138.709 395.252 138.149 395.252 137.518V137.498C395.252 136.88 395.115 136.329 394.842 135.848C394.568 135.359 394.194 134.979 393.719 134.705C393.25 134.432 392.71 134.295 392.098 134.295C391.629 134.295 391.196 134.367 390.799 134.51C390.402 134.653 390.047 134.868 389.734 135.154C389.611 135.271 389.493 135.398 389.383 135.535C389.279 135.672 389.181 135.825 389.09 135.994H387.557L388.299 127.908H396.189V129.48H389.695L389.217 134.236H389.344C389.559 133.917 389.819 133.65 390.125 133.436C390.438 133.221 390.786 133.058 391.17 132.947C391.561 132.83 391.971 132.771 392.4 132.771C393.292 132.771 394.08 132.977 394.764 133.387C395.454 133.79 395.994 134.347 396.385 135.057C396.782 135.76 396.98 136.564 396.98 137.469V137.488C396.98 138.432 396.769 139.269 396.346 139.998C395.923 140.721 395.34 141.287 394.598 141.697C393.862 142.107 393.012 142.312 392.049 142.312Z" fill="black"/>
<path d="M98.1465 193.312C97.502 193.312 96.8639 193.189 96.2324 192.941C95.6074 192.694 95.0378 192.294 94.5234 191.74C94.0091 191.187 93.599 190.458 93.293 189.553C92.987 188.648 92.834 187.535 92.834 186.213V186.193C92.834 184.598 93.0488 183.234 93.4785 182.102C93.9082 180.969 94.5267 180.103 95.334 179.504C96.1478 178.898 97.1243 178.596 98.2637 178.596C99.0579 178.596 99.7708 178.742 100.402 179.035C101.04 179.322 101.574 179.725 102.004 180.246C102.434 180.76 102.727 181.363 102.883 182.053L102.912 182.18H101.135L101.096 182.072C100.952 181.675 100.747 181.337 100.48 181.057C100.22 180.777 99.901 180.559 99.5234 180.402C99.1523 180.246 98.7259 180.168 98.2441 180.168C97.3913 180.168 96.6947 180.419 96.1543 180.92C95.6204 181.421 95.2233 182.085 94.9629 182.912C94.709 183.732 94.5658 184.637 94.5332 185.627C94.5267 185.705 94.5234 185.786 94.5234 185.871C94.5234 185.949 94.5234 186.031 94.5234 186.115L94.9434 188.449C94.9434 189.068 95.0833 189.628 95.3633 190.129C95.6497 190.624 96.0339 191.018 96.5156 191.311C96.9974 191.604 97.5345 191.75 98.127 191.75C98.7259 191.75 99.2663 191.607 99.748 191.32C100.23 191.034 100.611 190.646 100.891 190.158C101.177 189.663 101.32 189.113 101.32 188.508V188.488C101.32 187.87 101.184 187.32 100.91 186.838C100.643 186.35 100.272 185.969 99.7969 185.695C99.3216 185.422 98.7747 185.285 98.1562 185.285C97.5508 185.285 97.0039 185.422 96.5156 185.695C96.0339 185.962 95.6497 186.337 95.3633 186.818C95.0833 187.294 94.9434 187.834 94.9434 188.439V188.449H94.3574V185.949H94.6699C94.8522 185.559 95.1191 185.197 95.4707 184.865C95.8223 184.527 96.2487 184.257 96.75 184.055C97.2578 183.853 97.8275 183.752 98.459 183.752C99.3509 183.752 100.145 183.957 100.842 184.367C101.538 184.771 102.089 185.327 102.492 186.037C102.896 186.747 103.098 187.551 103.098 188.449V188.469C103.098 189.406 102.883 190.24 102.453 190.969C102.023 191.691 101.438 192.264 100.695 192.688C99.9531 193.104 99.1035 193.312 98.1465 193.312Z" fill="black"/>
<path d="M143.465 193L149.803 180.588V180.48H142.254V178.908H151.58V180.539L145.311 193H143.465Z" fill="black"/>
<path d="M196 193.234C195.004 193.234 194.122 193.062 193.354 192.717C192.585 192.372 191.98 191.896 191.537 191.291C191.101 190.679 190.883 189.979 190.883 189.191V189.172C190.883 188.592 191.01 188.055 191.264 187.561C191.518 187.066 191.872 186.646 192.328 186.301C192.784 185.949 193.311 185.705 193.91 185.568V185.529C193.142 185.288 192.53 184.891 192.074 184.338C191.618 183.785 191.391 183.137 191.391 182.395V182.375C191.391 181.665 191.589 181.034 191.986 180.48C192.383 179.921 192.93 179.481 193.627 179.162C194.324 178.837 195.115 178.674 196 178.674C196.892 178.674 197.683 178.837 198.373 179.162C199.07 179.481 199.617 179.921 200.014 180.48C200.411 181.034 200.609 181.665 200.609 182.375V182.395C200.609 183.137 200.382 183.785 199.926 184.338C199.477 184.891 198.865 185.288 198.09 185.529V185.568C198.695 185.705 199.223 185.949 199.672 186.301C200.128 186.646 200.482 187.066 200.736 187.561C200.99 188.055 201.117 188.592 201.117 189.172V189.191C201.117 189.979 200.899 190.679 200.463 191.291C200.027 191.896 199.421 192.372 198.646 192.717C197.878 193.062 196.996 193.234 196 193.234ZM196 191.701C196.651 191.701 197.224 191.59 197.719 191.369C198.22 191.141 198.614 190.832 198.9 190.441C199.187 190.044 199.33 189.592 199.33 189.084V189.064C199.33 188.55 199.187 188.094 198.9 187.697C198.62 187.3 198.23 186.988 197.729 186.76C197.227 186.532 196.651 186.418 196 186.418C195.349 186.418 194.773 186.532 194.271 186.76C193.77 186.988 193.376 187.3 193.09 187.697C192.81 188.094 192.67 188.55 192.67 189.064V189.084C192.67 189.592 192.813 190.044 193.1 190.441C193.386 190.832 193.78 191.141 194.281 191.369C194.783 191.59 195.355 191.701 196 191.701ZM196 184.875C196.566 184.875 197.064 184.777 197.494 184.582C197.924 184.38 198.259 184.104 198.5 183.752C198.741 183.4 198.861 182.997 198.861 182.541V182.521C198.861 182.066 198.741 181.662 198.5 181.311C198.259 180.959 197.924 180.686 197.494 180.49C197.064 180.288 196.566 180.188 196 180.188C195.434 180.188 194.936 180.288 194.506 180.49C194.076 180.686 193.741 180.959 193.5 181.311C193.259 181.662 193.139 182.066 193.139 182.521V182.541C193.139 182.997 193.259 183.4 193.5 183.752C193.741 184.104 194.076 184.38 194.506 184.582C194.936 184.777 195.434 184.875 196 184.875Z" fill="black"/>
<path d="M244.834 178.596C245.479 178.596 246.117 178.719 246.748 178.967C247.38 179.214 247.949 179.615 248.457 180.168C248.971 180.721 249.382 181.451 249.688 182.355C249.993 183.26 250.146 184.374 250.146 185.695V185.715C250.146 187.31 249.932 188.674 249.502 189.807C249.072 190.939 248.454 191.809 247.646 192.414C246.839 193.013 245.863 193.312 244.717 193.312C243.929 193.312 243.216 193.169 242.578 192.883C241.94 192.59 241.41 192.186 240.986 191.672C240.563 191.151 240.27 190.546 240.107 189.855L240.078 189.729H241.846L241.885 189.836C242.028 190.227 242.23 190.565 242.49 190.852C242.757 191.132 243.079 191.35 243.457 191.506C243.835 191.662 244.261 191.74 244.736 191.74C245.596 191.74 246.292 191.49 246.826 190.988C247.36 190.487 247.757 189.823 248.018 188.996C248.278 188.169 248.424 187.264 248.457 186.281C248.464 186.197 248.467 186.115 248.467 186.037C248.467 185.952 248.467 185.871 248.467 185.793L248.047 183.459C248.047 182.84 247.904 182.284 247.617 181.789C247.337 181.288 246.956 180.891 246.475 180.598C245.993 180.305 245.452 180.158 244.854 180.158C244.268 180.158 243.73 180.301 243.242 180.588C242.76 180.874 242.376 181.262 242.09 181.75C241.803 182.238 241.66 182.788 241.66 183.4V183.42C241.66 184.038 241.797 184.592 242.07 185.08C242.344 185.562 242.718 185.939 243.193 186.213C243.675 186.486 244.219 186.623 244.824 186.623C245.436 186.623 245.983 186.49 246.465 186.223C246.953 185.949 247.337 185.575 247.617 185.1C247.904 184.618 248.047 184.074 248.047 183.469V183.459H248.623V185.959H248.311C248.141 186.35 247.878 186.714 247.52 187.053C247.168 187.385 246.738 187.652 246.23 187.854C245.729 188.055 245.16 188.156 244.521 188.156C243.643 188.156 242.852 187.954 242.148 187.551C241.452 187.141 240.902 186.581 240.498 185.871C240.094 185.155 239.893 184.351 239.893 183.459V183.439C239.893 182.502 240.104 181.669 240.527 180.939C240.957 180.21 241.543 179.637 242.285 179.221C243.034 178.804 243.883 178.596 244.834 178.596Z" fill="black"/>
<path d="M288.336 193V180.842H288.209L284.586 183.439V181.604L288.336 178.908H290.084V193H288.336ZM298.345 193.312C297.297 193.312 296.399 193.013 295.65 192.414C294.908 191.815 294.335 190.965 293.931 189.865C293.534 188.765 293.336 187.463 293.336 185.959V185.939C293.336 184.436 293.534 183.137 293.931 182.043C294.335 180.943 294.908 180.093 295.65 179.494C296.399 178.895 297.297 178.596 298.345 178.596C299.4 178.596 300.302 178.895 301.05 179.494C301.799 180.093 302.375 180.943 302.779 182.043C303.183 183.137 303.384 184.436 303.384 185.939V185.959C303.384 187.463 303.183 188.765 302.779 189.865C302.375 190.965 301.799 191.815 301.05 192.414C300.302 193.013 299.4 193.312 298.345 193.312ZM298.345 191.779C299.035 191.779 299.621 191.542 300.103 191.066C300.591 190.591 300.966 189.921 301.226 189.055C301.487 188.182 301.617 187.15 301.617 185.959V185.939C301.617 184.748 301.487 183.719 301.226 182.854C300.966 181.988 300.591 181.32 300.103 180.852C299.621 180.376 299.035 180.139 298.345 180.139C297.668 180.139 297.086 180.376 296.597 180.852C296.115 181.32 295.744 181.988 295.484 182.854C295.23 183.719 295.103 184.748 295.103 185.939V185.959C295.103 187.15 295.23 188.182 295.484 189.055C295.744 189.921 296.115 190.591 296.597 191.066C297.086 191.542 297.668 191.779 298.345 191.779Z" fill="black"/>
<path d="M338.996 193V180.842H338.87L335.246 183.439V181.604L338.996 178.908H340.745V193H338.996ZM347.726 193V180.842H347.599L343.976 183.439V181.604L347.726 178.908H349.474V193H347.726Z" fill="black"/>
<path d="M386.639 193V180.842H386.512L382.889 183.439V181.604L386.639 178.908H388.387V193H386.639ZM391.892 193V191.789L396.697 186.633C397.309 185.975 397.784 185.435 398.123 185.012C398.461 184.582 398.696 184.195 398.826 183.85C398.963 183.505 399.031 183.127 399.031 182.717V182.697C399.031 182.209 398.92 181.773 398.699 181.389C398.484 180.998 398.178 180.692 397.781 180.471C397.384 180.243 396.915 180.129 396.375 180.129C395.808 180.129 395.307 180.246 394.871 180.48C394.441 180.715 394.106 181.04 393.865 181.457C393.624 181.867 393.504 182.342 393.504 182.883L393.494 182.912L391.804 182.902L391.795 182.883C391.801 182.056 392.003 181.32 392.4 180.676C392.804 180.025 393.357 179.517 394.06 179.152C394.763 178.781 395.561 178.596 396.453 178.596C397.28 178.596 398.022 178.768 398.679 179.113C399.343 179.458 399.864 179.927 400.242 180.52C400.626 181.112 400.818 181.786 400.818 182.541V182.561C400.818 183.088 400.724 183.599 400.535 184.094C400.346 184.582 400.017 185.129 399.548 185.734C399.08 186.333 398.416 187.072 397.556 187.951L393.865 191.76L394.324 190.891V191.76L393.875 191.418H401.052V193H391.892Z" fill="black"/>
<path d="M92.3949 244V231.842H92.268L88.6449 234.439V232.604L92.3949 229.908H94.143V244H92.3949ZM102.423 244.234C101.453 244.234 100.607 244.068 99.8844 243.736C99.1617 243.404 98.5888 242.949 98.1656 242.369C97.749 241.79 97.5081 241.129 97.443 240.387L97.4332 240.27H99.1227L99.1324 240.367C99.1845 240.829 99.3505 241.236 99.6305 241.588C99.9169 241.939 100.298 242.216 100.773 242.418C101.248 242.613 101.798 242.711 102.423 242.711C103.042 242.711 103.582 242.604 104.045 242.389C104.513 242.174 104.878 241.878 105.138 241.5C105.399 241.116 105.529 240.676 105.529 240.182V240.162C105.529 239.296 105.239 238.632 104.66 238.17C104.087 237.701 103.306 237.467 102.316 237.467H100.548V235.982H102.238C102.798 235.982 103.293 235.878 103.722 235.67C104.152 235.455 104.487 235.165 104.728 234.801C104.969 234.43 105.089 234.01 105.089 233.541V233.521C105.089 233.027 104.985 232.607 104.777 232.262C104.569 231.917 104.263 231.653 103.859 231.471C103.462 231.288 102.977 231.197 102.404 231.197C101.851 231.197 101.356 231.292 100.92 231.48C100.49 231.663 100.145 231.926 99.8844 232.271C99.624 232.617 99.4677 233.027 99.4156 233.502L99.4059 233.6H97.7164L97.7262 233.502C97.8043 232.734 98.0452 232.063 98.4488 231.49C98.859 230.917 99.3994 230.471 100.07 230.152C100.747 229.833 101.525 229.674 102.404 229.674C103.302 229.674 104.084 229.83 104.748 230.143C105.418 230.449 105.936 230.875 106.3 231.422C106.671 231.962 106.857 232.59 106.857 233.307V233.326C106.857 233.906 106.73 234.42 106.476 234.869C106.222 235.318 105.871 235.693 105.421 235.992C104.972 236.292 104.455 236.503 103.869 236.627V236.666C104.897 236.751 105.727 237.099 106.359 237.711C106.997 238.316 107.316 239.12 107.316 240.123V240.143C107.316 240.924 107.104 241.624 106.681 242.242C106.258 242.861 105.679 243.349 104.943 243.707C104.207 244.059 103.367 244.234 102.423 244.234Z" fill="black"/>
<path d="M141.239 244V231.842H141.112L137.489 234.439V232.604L141.239 229.908H142.987V244H141.239ZM152.986 244V241.08H146.072V239.479C146.463 238.84 146.856 238.196 147.254 237.545C147.657 236.894 148.061 236.243 148.464 235.592C148.875 234.941 149.285 234.296 149.695 233.658C150.105 233.014 150.515 232.379 150.925 231.754C151.336 231.122 151.739 230.507 152.136 229.908H154.705V239.508H156.697V241.08H154.705V244H152.986ZM147.849 239.518H152.996V231.51H152.888C152.563 231.998 152.231 232.503 151.892 233.023C151.56 233.538 151.222 234.062 150.877 234.596C150.532 235.13 150.186 235.667 149.841 236.207C149.503 236.747 149.164 237.288 148.826 237.828C148.494 238.362 148.168 238.893 147.849 239.42V239.518Z" fill="black"/>
<path d="M190.483 244V231.842H190.356L186.733 234.439V232.604L190.483 229.908H192.231V244H190.483ZM200.414 244.312C199.535 244.312 198.75 244.14 198.06 243.795C197.377 243.45 196.826 242.978 196.41 242.379C195.993 241.78 195.749 241.106 195.677 240.357L195.668 240.25H197.367L197.377 240.328C197.435 240.777 197.601 241.188 197.875 241.559C198.148 241.93 198.503 242.223 198.939 242.438C199.382 242.652 199.88 242.76 200.433 242.76C201.058 242.76 201.608 242.623 202.084 242.35C202.565 242.07 202.94 241.686 203.207 241.197C203.48 240.709 203.617 240.149 203.617 239.518V239.498C203.617 238.88 203.48 238.329 203.207 237.848C202.933 237.359 202.559 236.979 202.084 236.705C201.615 236.432 201.074 236.295 200.463 236.295C199.994 236.295 199.561 236.367 199.164 236.51C198.767 236.653 198.412 236.868 198.099 237.154C197.976 237.271 197.858 237.398 197.748 237.535C197.643 237.672 197.546 237.825 197.455 237.994H195.921L196.664 229.908H204.554V231.48H198.06L197.582 236.236H197.709C197.923 235.917 198.184 235.65 198.49 235.436C198.802 235.221 199.151 235.058 199.535 234.947C199.925 234.83 200.336 234.771 200.765 234.771C201.657 234.771 202.445 234.977 203.129 235.387C203.819 235.79 204.359 236.347 204.75 237.057C205.147 237.76 205.345 238.564 205.345 239.469V239.488C205.345 240.432 205.134 241.269 204.711 241.998C204.287 242.721 203.705 243.287 202.963 243.697C202.227 244.107 201.377 244.312 200.414 244.312Z" fill="black"/>
<path d="M239.258 244V231.842H239.131L235.508 234.439V232.604L239.258 229.908H241.006V244H239.258ZM249.511 244.312C248.867 244.312 248.229 244.189 247.597 243.941C246.972 243.694 246.403 243.294 245.888 242.74C245.374 242.187 244.964 241.458 244.658 240.553C244.352 239.648 244.199 238.535 244.199 237.213V237.193C244.199 235.598 244.414 234.234 244.843 233.102C245.273 231.969 245.892 231.103 246.699 230.504C247.513 229.898 248.489 229.596 249.629 229.596C250.423 229.596 251.136 229.742 251.767 230.035C252.405 230.322 252.939 230.725 253.369 231.246C253.798 231.76 254.091 232.363 254.248 233.053L254.277 233.18H252.5L252.461 233.072C252.317 232.675 252.112 232.337 251.845 232.057C251.585 231.777 251.266 231.559 250.888 231.402C250.517 231.246 250.091 231.168 249.609 231.168C248.756 231.168 248.06 231.419 247.519 231.92C246.985 232.421 246.588 233.085 246.328 233.912C246.074 234.732 245.931 235.637 245.898 236.627C245.892 236.705 245.888 236.786 245.888 236.871C245.888 236.949 245.888 237.031 245.888 237.115L246.308 239.449C246.308 240.068 246.448 240.628 246.728 241.129C247.015 241.624 247.399 242.018 247.88 242.311C248.362 242.604 248.899 242.75 249.492 242.75C250.091 242.75 250.631 242.607 251.113 242.32C251.595 242.034 251.976 241.646 252.255 241.158C252.542 240.663 252.685 240.113 252.685 239.508V239.488C252.685 238.87 252.548 238.32 252.275 237.838C252.008 237.35 251.637 236.969 251.162 236.695C250.686 236.422 250.14 236.285 249.521 236.285C248.916 236.285 248.369 236.422 247.88 236.695C247.399 236.962 247.015 237.337 246.728 237.818C246.448 238.294 246.308 238.834 246.308 239.439V239.449H245.722V236.949H246.035C246.217 236.559 246.484 236.197 246.836 235.865C247.187 235.527 247.614 235.257 248.115 235.055C248.623 234.853 249.192 234.752 249.824 234.752C250.716 234.752 251.51 234.957 252.207 235.367C252.903 235.771 253.453 236.327 253.857 237.037C254.261 237.747 254.463 238.551 254.463 239.449V239.469C254.463 240.406 254.248 241.24 253.818 241.969C253.388 242.691 252.802 243.264 252.06 243.688C251.318 244.104 250.468 244.312 249.511 244.312Z" fill="black"/>
<path d="M288.942 244V231.842H288.815L285.192 234.439V232.604L288.942 229.908H290.69V244H288.942ZM294.83 244L301.168 231.588V231.48H293.619V229.908H302.945V231.539L296.675 244H294.83Z" fill="black"/>
<path d="M337.288 244V231.842H337.161L333.538 234.439V232.604L337.288 229.908H339.036V244H337.288ZM347.365 244.234C346.369 244.234 345.487 244.062 344.718 243.717C343.95 243.372 343.345 242.896 342.902 242.291C342.466 241.679 342.248 240.979 342.248 240.191V240.172C342.248 239.592 342.375 239.055 342.629 238.561C342.882 238.066 343.237 237.646 343.693 237.301C344.149 236.949 344.676 236.705 345.275 236.568V236.529C344.507 236.288 343.895 235.891 343.439 235.338C342.983 234.785 342.755 234.137 342.755 233.395V233.375C342.755 232.665 342.954 232.034 343.351 231.48C343.748 230.921 344.295 230.481 344.992 230.162C345.688 229.837 346.479 229.674 347.365 229.674C348.257 229.674 349.048 229.837 349.738 230.162C350.435 230.481 350.981 230.921 351.379 231.48C351.776 232.034 351.974 232.665 351.974 233.375V233.395C351.974 234.137 351.746 234.785 351.291 235.338C350.841 235.891 350.229 236.288 349.455 236.529V236.568C350.06 236.705 350.588 236.949 351.037 237.301C351.492 237.646 351.847 238.066 352.101 238.561C352.355 239.055 352.482 239.592 352.482 240.172V240.191C352.482 240.979 352.264 241.679 351.828 242.291C351.392 242.896 350.786 243.372 350.011 243.717C349.243 244.062 348.361 244.234 347.365 244.234ZM347.365 242.701C348.016 242.701 348.589 242.59 349.084 242.369C349.585 242.141 349.979 241.832 350.265 241.441C350.552 241.044 350.695 240.592 350.695 240.084V240.064C350.695 239.55 350.552 239.094 350.265 238.697C349.985 238.3 349.595 237.988 349.093 237.76C348.592 237.532 348.016 237.418 347.365 237.418C346.714 237.418 346.138 237.532 345.636 237.76C345.135 237.988 344.741 238.3 344.455 238.697C344.175 239.094 344.035 239.55 344.035 240.064V240.084C344.035 240.592 344.178 241.044 344.464 241.441C344.751 241.832 345.145 242.141 345.646 242.369C346.147 242.59 346.72 242.701 347.365 242.701ZM347.365 235.875C347.931 235.875 348.429 235.777 348.859 235.582C349.289 235.38 349.624 235.104 349.865 234.752C350.106 234.4 350.226 233.997 350.226 233.541V233.521C350.226 233.066 350.106 232.662 349.865 232.311C349.624 231.959 349.289 231.686 348.859 231.49C348.429 231.288 347.931 231.188 347.365 231.188C346.798 231.188 346.3 231.288 345.871 231.49C345.441 231.686 345.106 231.959 344.865 232.311C344.624 232.662 344.504 233.066 344.504 233.521V233.541C344.504 233.997 344.624 234.4 344.865 234.752C345.106 235.104 345.441 235.38 345.871 235.582C346.3 235.777 346.798 235.875 347.365 235.875Z" fill="black"/>
<path d="M386.258 244V231.842H386.131L382.508 234.439V232.604L386.258 229.908H388.006V244H386.258ZM396.199 229.596C396.843 229.596 397.481 229.719 398.113 229.967C398.744 230.214 399.314 230.615 399.822 231.168C400.336 231.721 400.746 232.451 401.052 233.355C401.358 234.26 401.511 235.374 401.511 236.695V236.715C401.511 238.31 401.296 239.674 400.867 240.807C400.437 241.939 399.819 242.809 399.011 243.414C398.204 244.013 397.227 244.312 396.082 244.312C395.294 244.312 394.581 244.169 393.943 243.883C393.305 243.59 392.774 243.186 392.351 242.672C391.928 242.151 391.635 241.546 391.472 240.855L391.443 240.729H393.211L393.25 240.836C393.393 241.227 393.595 241.565 393.855 241.852C394.122 242.132 394.444 242.35 394.822 242.506C395.199 242.662 395.626 242.74 396.101 242.74C396.961 242.74 397.657 242.49 398.191 241.988C398.725 241.487 399.122 240.823 399.382 239.996C399.643 239.169 399.789 238.264 399.822 237.281C399.828 237.197 399.832 237.115 399.832 237.037C399.832 236.952 399.832 236.871 399.832 236.793L399.412 234.459C399.412 233.84 399.268 233.284 398.982 232.789C398.702 232.288 398.321 231.891 397.839 231.598C397.358 231.305 396.817 231.158 396.218 231.158C395.632 231.158 395.095 231.301 394.607 231.588C394.125 231.874 393.741 232.262 393.455 232.75C393.168 233.238 393.025 233.788 393.025 234.4V234.42C393.025 235.038 393.162 235.592 393.435 236.08C393.709 236.562 394.083 236.939 394.558 237.213C395.04 237.486 395.584 237.623 396.189 237.623C396.801 237.623 397.348 237.49 397.83 237.223C398.318 236.949 398.702 236.575 398.982 236.1C399.268 235.618 399.412 235.074 399.412 234.469V234.459H399.988V236.959H399.675C399.506 237.35 399.242 237.714 398.884 238.053C398.533 238.385 398.103 238.652 397.595 238.854C397.094 239.055 396.524 239.156 395.886 239.156C395.007 239.156 394.216 238.954 393.513 238.551C392.817 238.141 392.267 237.581 391.863 236.871C391.459 236.155 391.257 235.351 391.257 234.459V234.439C391.257 233.502 391.469 232.669 391.892 231.939C392.322 231.21 392.908 230.637 393.65 230.221C394.399 229.804 395.248 229.596 396.199 229.596Z" fill="black"/>
<circle opacity="0.12" cx="98" cy="288" r="22" fill="#0088FF"/>
<path d="M84.8164 297V295.195L90.7227 289.23C91.4727 288.473 92.0469 287.844 92.4453 287.344C92.8438 286.844 93.1172 286.398 93.2656 286.008C93.4141 285.617 93.4883 285.199 93.4883 284.754V284.73C93.4883 284.191 93.3633 283.715 93.1133 283.301C92.8711 282.879 92.5273 282.551 92.082 282.316C91.6445 282.074 91.1328 281.953 90.5469 281.953C89.8984 281.953 89.3203 282.09 88.8125 282.363C88.3047 282.629 87.9062 282.992 87.6172 283.453C87.3281 283.914 87.1836 284.434 87.1836 285.012L87.1719 285.082H84.6875L84.6758 285.012C84.6836 283.996 84.9414 283.098 85.4492 282.316C85.9648 281.527 86.668 280.91 87.5586 280.465C88.4492 280.012 89.4453 279.785 90.5469 279.785C91.625 279.785 92.582 279.992 93.418 280.406C94.2539 280.82 94.9102 281.391 95.3867 282.117C95.8633 282.836 96.1016 283.652 96.1016 284.566V284.59C96.1016 285.23 95.9844 285.844 95.75 286.43C95.5156 287.008 95.1133 287.648 94.543 288.352C93.9727 289.055 93.1797 289.906 92.1641 290.906L87.5117 295.488L88.3672 293.883V295.488L87.5117 294.773H96.3594V297H84.8164ZM105.031 297.305C103.688 297.305 102.535 296.949 101.574 296.238C100.621 295.527 99.8867 294.52 99.3711 293.215C98.8633 291.902 98.6094 290.348 98.6094 288.551V288.527C98.6094 286.73 98.8633 285.18 99.3711 283.875C99.8867 282.562 100.621 281.555 101.574 280.852C102.535 280.141 103.688 279.785 105.031 279.785C106.367 279.785 107.516 280.141 108.477 280.852C109.438 281.555 110.172 282.562 110.68 283.875C111.195 285.18 111.453 286.73 111.453 288.527V288.551C111.453 290.348 111.195 291.902 110.68 293.215C110.172 294.52 109.438 295.527 108.477 296.238C107.516 296.949 106.367 297.305 105.031 297.305ZM105.031 295.113C105.82 295.113 106.496 294.848 107.059 294.316C107.621 293.785 108.051 293.031 108.348 292.055C108.652 291.07 108.805 289.902 108.805 288.551V288.527C108.805 287.176 108.652 286.012 108.348 285.035C108.051 284.059 107.621 283.309 107.059 282.785C106.496 282.254 105.82 281.988 105.031 281.988C104.234 281.988 103.555 282.254 102.992 282.785C102.43 283.309 102 284.059 101.703 285.035C101.414 286.012 101.27 287.176 101.27 288.527V288.551C101.27 289.902 101.414 291.07 101.703 292.055C102 293.031 102.43 293.785 102.992 294.316C103.555 294.848 104.234 295.113 105.031 295.113Z" fill="#0088FF"/>
<path d="M138.163 295V293.789L142.967 288.633C143.579 287.975 144.054 287.435 144.393 287.012C144.732 286.582 144.966 286.195 145.096 285.85C145.233 285.505 145.301 285.127 145.301 284.717V284.697C145.301 284.209 145.19 283.773 144.969 283.389C144.754 282.998 144.448 282.692 144.051 282.471C143.654 282.243 143.185 282.129 142.645 282.129C142.079 282.129 141.577 282.246 141.141 282.48C140.711 282.715 140.376 283.04 140.135 283.457C139.894 283.867 139.774 284.342 139.774 284.883L139.764 284.912L138.075 284.902L138.065 284.883C138.071 284.056 138.273 283.32 138.67 282.676C139.074 282.025 139.627 281.517 140.33 281.152C141.034 280.781 141.831 280.596 142.723 280.596C143.55 280.596 144.292 280.768 144.95 281.113C145.614 281.458 146.135 281.927 146.512 282.52C146.896 283.112 147.088 283.786 147.088 284.541V284.561C147.088 285.088 146.994 285.599 146.805 286.094C146.616 286.582 146.288 287.129 145.819 287.734C145.35 288.333 144.686 289.072 143.827 289.951L140.135 293.76L140.594 292.891V293.76L140.145 293.418H147.323V295H138.163ZM153.084 295V282.842H152.957L149.334 285.439V283.604L153.084 280.908H154.832V295H153.084Z" fill="black"/>
<path d="M185.805 295V293.789L190.61 288.633C191.222 287.975 191.697 287.435 192.036 287.012C192.374 286.582 192.608 286.195 192.739 285.85C192.875 285.505 192.944 285.127 192.944 284.717V284.697C192.944 284.209 192.833 283.773 192.612 283.389C192.397 282.998 192.091 282.692 191.694 282.471C191.297 282.243 190.828 282.129 190.288 282.129C189.721 282.129 189.22 282.246 188.784 282.48C188.354 282.715 188.019 283.04 187.778 283.457C187.537 283.867 187.416 284.342 187.416 284.883L187.407 284.912L185.717 284.902L185.707 284.883C185.714 284.056 185.916 283.32 186.313 282.676C186.717 282.025 187.27 281.517 187.973 281.152C188.676 280.781 189.474 280.596 190.366 280.596C191.192 280.596 191.935 280.768 192.592 281.113C193.256 281.458 193.777 281.927 194.155 282.52C194.539 283.112 194.731 283.786 194.731 284.541V284.561C194.731 285.088 194.636 285.599 194.448 286.094C194.259 286.582 193.93 287.129 193.461 287.734C192.993 288.333 192.329 289.072 191.469 289.951L187.778 293.76L188.237 292.891V293.76L187.788 293.418H194.965V295H185.805ZM197.25 295V293.789L202.054 288.633C202.666 287.975 203.142 287.435 203.48 287.012C203.819 286.582 204.053 286.195 204.183 285.85C204.32 285.505 204.388 285.127 204.388 284.717V284.697C204.388 284.209 204.278 283.773 204.056 283.389C203.841 282.998 203.535 282.692 203.138 282.471C202.741 282.243 202.272 282.129 201.732 282.129C201.166 282.129 200.664 282.246 200.228 282.48C199.798 282.715 199.463 283.04 199.222 283.457C198.981 283.867 198.861 284.342 198.861 284.883L198.851 284.912L197.162 284.902L197.152 284.883C197.158 284.056 197.36 283.32 197.757 282.676C198.161 282.025 198.714 281.517 199.418 281.152C200.121 280.781 200.918 280.596 201.81 280.596C202.637 280.596 203.379 280.768 204.037 281.113C204.701 281.458 205.222 281.927 205.599 282.52C205.983 283.112 206.175 283.786 206.175 284.541V284.561C206.175 285.088 206.081 285.599 205.892 286.094C205.703 286.582 205.375 287.129 204.906 287.734C204.437 288.333 203.773 289.072 202.914 289.951L199.222 293.76L199.681 292.891V293.76L199.232 293.418H206.41V295H197.25Z" fill="black"/>
<path d="M234.561 295V293.789L239.366 288.633C239.978 287.975 240.453 287.435 240.791 287.012C241.13 286.582 241.364 286.195 241.495 285.85C241.631 285.505 241.7 285.127 241.7 284.717V284.697C241.7 284.209 241.589 283.773 241.368 283.389C241.153 282.998 240.847 282.692 240.45 282.471C240.052 282.243 239.584 282.129 239.043 282.129C238.477 282.129 237.976 282.246 237.539 282.48C237.11 282.715 236.774 283.04 236.534 283.457C236.293 283.867 236.172 284.342 236.172 284.883L236.163 284.912L234.473 284.902L234.463 284.883C234.47 284.056 234.672 283.32 235.069 282.676C235.472 282.025 236.026 281.517 236.729 281.152C237.432 280.781 238.23 280.596 239.121 280.596C239.948 280.596 240.69 280.768 241.348 281.113C242.012 281.458 242.533 281.927 242.911 282.52C243.295 283.112 243.487 283.786 243.487 284.541V284.561C243.487 285.088 243.392 285.599 243.204 286.094C243.015 286.582 242.686 287.129 242.217 287.734C241.748 288.333 241.084 289.072 240.225 289.951L236.534 293.76L236.993 292.891V293.76L236.543 293.418H243.721V295H234.561ZM250.781 295.234C249.811 295.234 248.964 295.068 248.242 294.736C247.519 294.404 246.946 293.949 246.523 293.369C246.106 292.79 245.865 292.129 245.8 291.387L245.791 291.27H247.48L247.49 291.367C247.542 291.829 247.708 292.236 247.988 292.588C248.274 292.939 248.655 293.216 249.13 293.418C249.606 293.613 250.156 293.711 250.781 293.711C251.399 293.711 251.94 293.604 252.402 293.389C252.871 293.174 253.235 292.878 253.496 292.5C253.756 292.116 253.886 291.676 253.886 291.182V291.162C253.886 290.296 253.597 289.632 253.017 289.17C252.444 288.701 251.663 288.467 250.673 288.467H248.906V286.982H250.595C251.155 286.982 251.65 286.878 252.08 286.67C252.509 286.455 252.845 286.165 253.086 285.801C253.326 285.43 253.447 285.01 253.447 284.541V284.521C253.447 284.027 253.343 283.607 253.134 283.262C252.926 282.917 252.62 282.653 252.216 282.471C251.819 282.288 251.334 282.197 250.761 282.197C250.208 282.197 249.713 282.292 249.277 282.48C248.847 282.663 248.502 282.926 248.242 283.271C247.981 283.617 247.825 284.027 247.773 284.502L247.763 284.6H246.074L246.084 284.502C246.162 283.734 246.403 283.063 246.806 282.49C247.216 281.917 247.757 281.471 248.427 281.152C249.104 280.833 249.882 280.674 250.761 280.674C251.66 280.674 252.441 280.83 253.105 281.143C253.776 281.449 254.293 281.875 254.658 282.422C255.029 282.962 255.214 283.59 255.214 284.307V284.326C255.214 284.906 255.088 285.42 254.834 285.869C254.58 286.318 254.228 286.693 253.779 286.992C253.33 287.292 252.812 287.503 252.226 287.627V287.666C253.255 287.751 254.085 288.099 254.716 288.711C255.354 289.316 255.673 290.12 255.673 291.123V291.143C255.673 291.924 255.462 292.624 255.039 293.242C254.615 293.861 254.036 294.349 253.3 294.707C252.565 295.059 251.725 295.234 250.781 295.234Z" fill="black"/>
<path d="M283.571 295V293.789L288.375 288.633C288.987 287.975 289.463 287.435 289.801 287.012C290.14 286.582 290.374 286.195 290.504 285.85C290.641 285.505 290.709 285.127 290.709 284.717V284.697C290.709 284.209 290.599 283.773 290.377 283.389C290.163 282.998 289.857 282.692 289.459 282.471C289.062 282.243 288.593 282.129 288.053 282.129C287.487 282.129 286.985 282.246 286.549 282.48C286.12 282.715 285.784 283.04 285.543 283.457C285.302 283.867 285.182 284.342 285.182 284.883L285.172 284.912L283.483 284.902L283.473 284.883C283.48 284.056 283.681 283.32 284.079 282.676C284.482 282.025 285.036 281.517 285.739 281.152C286.442 280.781 287.239 280.596 288.131 280.596C288.958 280.596 289.7 280.768 290.358 281.113C291.022 281.458 291.543 281.927 291.92 282.52C292.304 283.112 292.496 283.786 292.496 284.541V284.561C292.496 285.088 292.402 285.599 292.213 286.094C292.024 286.582 291.696 287.129 291.227 287.734C290.758 288.333 290.094 289.072 289.235 289.951L285.543 293.76L286.002 292.891V293.76L285.553 293.418H292.731V295H283.571ZM301.177 295V292.08H294.263V290.479C294.654 289.84 295.048 289.196 295.445 288.545C295.849 287.894 296.252 287.243 296.656 286.592C297.066 285.941 297.476 285.296 297.886 284.658C298.296 284.014 298.707 283.379 299.117 282.754C299.527 282.122 299.931 281.507 300.328 280.908H302.896V290.508H304.888V292.08H302.896V295H301.177ZM296.041 290.518H301.187V282.51H301.08C300.754 282.998 300.422 283.503 300.084 284.023C299.752 284.538 299.413 285.062 299.068 285.596C298.723 286.13 298.378 286.667 298.033 287.207C297.694 287.747 297.356 288.288 297.017 288.828C296.685 289.362 296.36 289.893 296.041 290.42V290.518Z" fill="black"/>
<path d="M332.649 295V293.789L337.454 288.633C338.065 287.975 338.541 287.435 338.879 287.012C339.218 286.582 339.452 286.195 339.582 285.85C339.719 285.505 339.788 285.127 339.788 284.717V284.697C339.788 284.209 339.677 283.773 339.455 283.389C339.241 282.998 338.935 282.692 338.538 282.471C338.14 282.243 337.672 282.129 337.131 282.129C336.565 282.129 336.064 282.246 335.627 282.48C335.198 282.715 334.862 283.04 334.621 283.457C334.381 283.867 334.26 284.342 334.26 284.883L334.25 284.912L332.561 284.902L332.551 284.883C332.558 284.056 332.76 283.32 333.157 282.676C333.56 282.025 334.114 281.517 334.817 281.152C335.52 280.781 336.317 280.596 337.209 280.596C338.036 280.596 338.778 280.768 339.436 281.113C340.1 281.458 340.621 281.927 340.998 282.52C341.383 283.112 341.575 283.786 341.575 284.541V284.561C341.575 285.088 341.48 285.599 341.291 286.094C341.103 286.582 340.774 287.129 340.305 287.734C339.836 288.333 339.172 289.072 338.313 289.951L334.621 293.76L335.08 292.891V293.76L334.631 293.418H341.809V295H332.649ZM348.771 295.312C347.892 295.312 347.108 295.14 346.418 294.795C345.734 294.45 345.184 293.978 344.767 293.379C344.351 292.78 344.106 292.106 344.035 291.357L344.025 291.25H345.724L345.734 291.328C345.793 291.777 345.959 292.188 346.232 292.559C346.505 292.93 346.86 293.223 347.296 293.438C347.739 293.652 348.237 293.76 348.791 293.76C349.416 293.76 349.966 293.623 350.441 293.35C350.923 293.07 351.297 292.686 351.564 292.197C351.838 291.709 351.974 291.149 351.974 290.518V290.498C351.974 289.88 351.838 289.329 351.564 288.848C351.291 288.359 350.916 287.979 350.441 287.705C349.972 287.432 349.432 287.295 348.82 287.295C348.351 287.295 347.918 287.367 347.521 287.51C347.124 287.653 346.769 287.868 346.457 288.154C346.333 288.271 346.216 288.398 346.105 288.535C346.001 288.672 345.903 288.825 345.812 288.994H344.279L345.021 280.908H352.912V282.48H346.418L345.939 287.236H346.066C346.281 286.917 346.541 286.65 346.847 286.436C347.16 286.221 347.508 286.058 347.892 285.947C348.283 285.83 348.693 285.771 349.123 285.771C350.015 285.771 350.802 285.977 351.486 286.387C352.176 286.79 352.716 287.347 353.107 288.057C353.504 288.76 353.703 289.564 353.703 290.469V290.488C353.703 291.432 353.491 292.269 353.068 292.998C352.645 293.721 352.062 294.287 351.32 294.697C350.584 295.107 349.735 295.312 348.771 295.312Z" fill="black"/>
<path d="M381.424 295V293.789L386.229 288.633C386.841 287.975 387.316 287.435 387.655 287.012C387.993 286.582 388.228 286.195 388.358 285.85C388.495 285.505 388.563 285.127 388.563 284.717V284.697C388.563 284.209 388.452 283.773 388.231 283.389C388.016 282.998 387.71 282.692 387.313 282.471C386.916 282.243 386.447 282.129 385.907 282.129C385.34 282.129 384.839 282.246 384.403 282.48C383.973 282.715 383.638 283.04 383.397 283.457C383.156 283.867 383.036 284.342 383.036 284.883L383.026 284.912L381.336 284.902L381.327 284.883C381.333 284.056 381.535 283.32 381.932 282.676C382.336 282.025 382.889 281.517 383.592 281.152C384.295 280.781 385.093 280.596 385.985 280.596C386.812 280.596 387.554 280.768 388.211 281.113C388.875 281.458 389.396 281.927 389.774 282.52C390.158 283.112 390.35 283.786 390.35 284.541V284.561C390.35 285.088 390.256 285.599 390.067 286.094C389.878 286.582 389.549 287.129 389.08 287.734C388.612 288.333 387.948 289.072 387.088 289.951L383.397 293.76L383.856 292.891V293.76L383.407 293.418H390.584V295H381.424ZM397.869 295.312C397.224 295.312 396.586 295.189 395.955 294.941C395.33 294.694 394.76 294.294 394.246 293.74C393.731 293.187 393.321 292.458 393.015 291.553C392.709 290.648 392.556 289.535 392.556 288.213V288.193C392.556 286.598 392.771 285.234 393.201 284.102C393.63 282.969 394.249 282.103 395.056 281.504C395.87 280.898 396.847 280.596 397.986 280.596C398.78 280.596 399.493 280.742 400.125 281.035C400.763 281.322 401.296 281.725 401.726 282.246C402.156 282.76 402.449 283.363 402.605 284.053L402.634 284.18H400.857L400.818 284.072C400.675 283.675 400.47 283.337 400.203 283.057C399.942 282.777 399.623 282.559 399.246 282.402C398.875 282.246 398.448 282.168 397.966 282.168C397.114 282.168 396.417 282.419 395.877 282.92C395.343 283.421 394.946 284.085 394.685 284.912C394.431 285.732 394.288 286.637 394.255 287.627C394.249 287.705 394.246 287.786 394.246 287.871C394.246 287.949 394.246 288.031 394.246 288.115L394.666 290.449C394.666 291.068 394.806 291.628 395.086 292.129C395.372 292.624 395.756 293.018 396.238 293.311C396.72 293.604 397.257 293.75 397.849 293.75C398.448 293.75 398.989 293.607 399.47 293.32C399.952 293.034 400.333 292.646 400.613 292.158C400.899 291.663 401.043 291.113 401.043 290.508V290.488C401.043 289.87 400.906 289.32 400.632 288.838C400.365 288.35 399.994 287.969 399.519 287.695C399.044 287.422 398.497 287.285 397.879 287.285C397.273 287.285 396.726 287.422 396.238 287.695C395.756 287.962 395.372 288.337 395.086 288.818C394.806 289.294 394.666 289.834 394.666 290.439V290.449H394.08V287.949H394.392C394.574 287.559 394.841 287.197 395.193 286.865C395.545 286.527 395.971 286.257 396.472 286.055C396.98 285.853 397.55 285.752 398.181 285.752C399.073 285.752 399.867 285.957 400.564 286.367C401.261 286.771 401.811 287.327 402.214 288.037C402.618 288.747 402.82 289.551 402.82 290.449V290.469C402.82 291.406 402.605 292.24 402.175 292.969C401.746 293.691 401.16 294.264 400.418 294.688C399.675 295.104 398.826 295.312 397.869 295.312Z" fill="black"/>
<path d="M88.1078 346V344.789L92.9125 339.633C93.5245 338.975 93.9997 338.435 94.3383 338.012C94.6768 337.582 94.9112 337.195 95.0414 336.85C95.1781 336.505 95.2465 336.127 95.2465 335.717V335.697C95.2465 335.209 95.1358 334.773 94.9145 334.389C94.6996 333.998 94.3936 333.692 93.9965 333.471C93.5993 333.243 93.1306 333.129 92.5902 333.129C92.0238 333.129 91.5225 333.246 91.0863 333.48C90.6566 333.715 90.3214 334.04 90.0805 334.457C89.8396 334.867 89.7191 335.342 89.7191 335.883L89.7094 335.912L88.0199 335.902L88.0102 335.883C88.0167 335.056 88.2185 334.32 88.6156 333.676C89.0193 333.025 89.5727 332.517 90.2758 332.152C90.9789 331.781 91.7764 331.596 92.6684 331.596C93.4952 331.596 94.2374 331.768 94.8949 332.113C95.559 332.458 96.0798 332.927 96.4574 333.52C96.8415 334.112 97.0336 334.786 97.0336 335.541V335.561C97.0336 336.088 96.9392 336.599 96.7504 337.094C96.5616 337.582 96.2328 338.129 95.7641 338.734C95.2953 339.333 94.6313 340.072 93.7719 340.951L90.0805 344.76L90.5395 343.891V344.76L90.0902 344.418H97.268V346H88.1078ZM100.187 346L106.525 333.588V333.48H98.9762V331.908H108.302V333.539L102.033 346H100.187Z" fill="black"/>
<path d="M136.454 346V344.789L141.258 339.633C141.87 338.975 142.345 338.435 142.684 338.012C143.023 337.582 143.257 337.195 143.387 336.85C143.524 336.505 143.592 336.127 143.592 335.717V335.697C143.592 335.209 143.482 334.773 143.26 334.389C143.045 333.998 142.739 333.692 142.342 333.471C141.945 333.243 141.476 333.129 140.936 333.129C140.37 333.129 139.868 333.246 139.432 333.48C139.002 333.715 138.667 334.04 138.426 334.457C138.185 334.867 138.065 335.342 138.065 335.883L138.055 335.912L136.366 335.902L136.356 335.883C136.362 335.056 136.564 334.32 136.961 333.676C137.365 333.025 137.918 332.517 138.621 332.152C139.325 331.781 140.122 331.596 141.014 331.596C141.841 331.596 142.583 331.768 143.241 332.113C143.905 332.458 144.426 332.927 144.803 333.52C145.187 334.112 145.379 334.786 145.379 335.541V335.561C145.379 336.088 145.285 336.599 145.096 337.094C144.907 337.582 144.579 338.129 144.11 338.734C143.641 339.333 142.977 340.072 142.118 340.951L138.426 344.76L138.885 343.891V344.76L138.436 344.418H145.614V346H136.454ZM152.722 346.234C151.726 346.234 150.844 346.062 150.076 345.717C149.308 345.372 148.702 344.896 148.259 344.291C147.823 343.679 147.605 342.979 147.605 342.191V342.172C147.605 341.592 147.732 341.055 147.986 340.561C148.24 340.066 148.595 339.646 149.05 339.301C149.506 338.949 150.033 338.705 150.632 338.568V338.529C149.864 338.288 149.252 337.891 148.796 337.338C148.341 336.785 148.113 336.137 148.113 335.395V335.375C148.113 334.665 148.311 334.034 148.709 333.48C149.106 332.921 149.653 332.481 150.349 332.162C151.046 331.837 151.837 331.674 152.722 331.674C153.614 331.674 154.405 331.837 155.095 332.162C155.792 332.481 156.339 332.921 156.736 333.48C157.133 334.034 157.332 334.665 157.332 335.375V335.395C157.332 336.137 157.104 336.785 156.648 337.338C156.199 337.891 155.587 338.288 154.812 338.529V338.568C155.418 338.705 155.945 338.949 156.394 339.301C156.85 339.646 157.205 340.066 157.459 340.561C157.713 341.055 157.839 341.592 157.839 342.172V342.191C157.839 342.979 157.621 343.679 157.185 344.291C156.749 344.896 156.143 345.372 155.369 345.717C154.601 346.062 153.718 346.234 152.722 346.234ZM152.722 344.701C153.373 344.701 153.946 344.59 154.441 344.369C154.942 344.141 155.336 343.832 155.623 343.441C155.909 343.044 156.052 342.592 156.052 342.084V342.064C156.052 341.55 155.909 341.094 155.623 340.697C155.343 340.3 154.952 339.988 154.451 339.76C153.949 339.532 153.373 339.418 152.722 339.418C152.071 339.418 151.495 339.532 150.994 339.76C150.492 339.988 150.099 340.3 149.812 340.697C149.532 341.094 149.392 341.55 149.392 342.064V342.084C149.392 342.592 149.535 343.044 149.822 343.441C150.108 343.832 150.502 344.141 151.004 344.369C151.505 344.59 152.078 344.701 152.722 344.701ZM152.722 337.875C153.289 337.875 153.787 337.777 154.216 337.582C154.646 337.38 154.981 337.104 155.222 336.752C155.463 336.4 155.584 335.997 155.584 335.541V335.521C155.584 335.066 155.463 334.662 155.222 334.311C154.981 333.959 154.646 333.686 154.216 333.49C153.787 333.288 153.289 333.188 152.722 333.188C152.156 333.188 151.658 333.288 151.228 333.49C150.798 333.686 150.463 333.959 150.222 334.311C149.981 334.662 149.861 335.066 149.861 335.521V335.541C149.861 335.997 149.981 336.4 150.222 336.752C150.463 337.104 150.798 337.38 151.228 337.582C151.658 337.777 152.156 337.875 152.722 337.875Z" fill="black"/>
<path d="M185.424 346V344.789L190.229 339.633C190.841 338.975 191.316 338.435 191.655 338.012C191.993 337.582 192.228 337.195 192.358 336.85C192.495 336.505 192.563 336.127 192.563 335.717V335.697C192.563 335.209 192.452 334.773 192.231 334.389C192.016 333.998 191.71 333.692 191.313 333.471C190.916 333.243 190.447 333.129 189.907 333.129C189.34 333.129 188.839 333.246 188.403 333.48C187.973 333.715 187.638 334.04 187.397 334.457C187.156 334.867 187.036 335.342 187.036 335.883L187.026 335.912L185.336 335.902L185.327 335.883C185.333 335.056 185.535 334.32 185.932 333.676C186.336 333.025 186.889 332.517 187.592 332.152C188.295 331.781 189.093 331.596 189.985 331.596C190.812 331.596 191.554 331.768 192.211 332.113C192.875 332.458 193.396 332.927 193.774 333.52C194.158 334.112 194.35 334.786 194.35 335.541V335.561C194.35 336.088 194.256 336.599 194.067 337.094C193.878 337.582 193.549 338.129 193.08 338.734C192.612 339.333 191.948 340.072 191.088 340.951L187.397 344.76L187.856 343.891V344.76L187.407 344.418H194.584V346H185.424ZM201.556 331.596C202.201 331.596 202.839 331.719 203.47 331.967C204.102 332.214 204.671 332.615 205.179 333.168C205.694 333.721 206.104 334.451 206.41 335.355C206.716 336.26 206.869 337.374 206.869 338.695V338.715C206.869 340.31 206.654 341.674 206.224 342.807C205.795 343.939 205.176 344.809 204.369 345.414C203.561 346.013 202.585 346.312 201.439 346.312C200.651 346.312 199.938 346.169 199.3 345.883C198.662 345.59 198.132 345.186 197.709 344.672C197.285 344.151 196.992 343.546 196.83 342.855L196.8 342.729H198.568L198.607 342.836C198.75 343.227 198.952 343.565 199.213 343.852C199.479 344.132 199.802 344.35 200.179 344.506C200.557 344.662 200.983 344.74 201.459 344.74C202.318 344.74 203.015 344.49 203.548 343.988C204.082 343.487 204.479 342.823 204.74 341.996C205 341.169 205.147 340.264 205.179 339.281C205.186 339.197 205.189 339.115 205.189 339.037C205.189 338.952 205.189 338.871 205.189 338.793L204.769 336.459C204.769 335.84 204.626 335.284 204.339 334.789C204.06 334.288 203.679 333.891 203.197 333.598C202.715 333.305 202.175 333.158 201.576 333.158C200.99 333.158 200.453 333.301 199.964 333.588C199.483 333.874 199.099 334.262 198.812 334.75C198.526 335.238 198.382 335.788 198.382 336.4V336.42C198.382 337.038 198.519 337.592 198.793 338.08C199.066 338.562 199.44 338.939 199.916 339.213C200.397 339.486 200.941 339.623 201.546 339.623C202.158 339.623 202.705 339.49 203.187 339.223C203.675 338.949 204.06 338.575 204.339 338.1C204.626 337.618 204.769 337.074 204.769 336.469V336.459H205.345V338.959H205.033C204.864 339.35 204.6 339.714 204.242 340.053C203.89 340.385 203.461 340.652 202.953 340.854C202.451 341.055 201.882 341.156 201.244 341.156C200.365 341.156 199.574 340.954 198.871 340.551C198.174 340.141 197.624 339.581 197.22 338.871C196.817 338.155 196.615 337.351 196.615 336.459V336.439C196.615 335.502 196.826 334.669 197.25 333.939C197.679 333.21 198.265 332.637 199.007 332.221C199.756 331.804 200.606 331.596 201.556 331.596Z" fill="black"/>
<path d="M239.034 346.234C238.064 346.234 237.217 346.068 236.495 345.736C235.772 345.404 235.199 344.949 234.776 344.369C234.359 343.79 234.118 343.129 234.053 342.387L234.043 342.27H235.733L235.743 342.367C235.795 342.829 235.961 343.236 236.241 343.588C236.527 343.939 236.908 344.216 237.383 344.418C237.858 344.613 238.409 344.711 239.034 344.711C239.652 344.711 240.192 344.604 240.655 344.389C241.123 344.174 241.488 343.878 241.748 343.5C242.009 343.116 242.139 342.676 242.139 342.182V342.162C242.139 341.296 241.849 340.632 241.27 340.17C240.697 339.701 239.916 339.467 238.926 339.467H237.159V337.982H238.848C239.408 337.982 239.903 337.878 240.332 337.67C240.762 337.455 241.097 337.165 241.338 336.801C241.579 336.43 241.7 336.01 241.7 335.541V335.521C241.7 335.027 241.595 334.607 241.387 334.262C241.179 333.917 240.873 333.653 240.469 333.471C240.072 333.288 239.587 333.197 239.014 333.197C238.461 333.197 237.966 333.292 237.53 333.48C237.1 333.663 236.755 333.926 236.495 334.271C236.234 334.617 236.078 335.027 236.026 335.502L236.016 335.6H234.327L234.336 335.502C234.414 334.734 234.655 334.063 235.059 333.49C235.469 332.917 236.01 332.471 236.68 332.152C237.357 331.833 238.135 331.674 239.014 331.674C239.913 331.674 240.694 331.83 241.358 332.143C242.028 332.449 242.546 332.875 242.911 333.422C243.282 333.962 243.467 334.59 243.467 335.307V335.326C243.467 335.906 243.34 336.42 243.086 336.869C242.832 337.318 242.481 337.693 242.032 337.992C241.582 338.292 241.065 338.503 240.479 338.627V338.666C241.508 338.751 242.338 339.099 242.969 339.711C243.607 340.316 243.926 341.12 243.926 342.123V342.143C243.926 342.924 243.715 343.624 243.291 344.242C242.868 344.861 242.289 345.349 241.553 345.707C240.817 346.059 239.978 346.234 239.034 346.234ZM250.947 346.312C249.899 346.312 249 346.013 248.252 345.414C247.509 344.815 246.936 343.965 246.533 342.865C246.136 341.765 245.937 340.463 245.937 338.959V338.939C245.937 337.436 246.136 336.137 246.533 335.043C246.936 333.943 247.509 333.093 248.252 332.494C249 331.895 249.899 331.596 250.947 331.596C252.002 331.596 252.903 331.895 253.652 332.494C254.401 333.093 254.977 333.943 255.38 335.043C255.784 336.137 255.986 337.436 255.986 338.939V338.959C255.986 340.463 255.784 341.765 255.38 342.865C254.977 343.965 254.401 344.815 253.652 345.414C252.903 346.013 252.002 346.312 250.947 346.312ZM250.947 344.779C251.637 344.779 252.223 344.542 252.705 344.066C253.193 343.591 253.567 342.921 253.828 342.055C254.088 341.182 254.218 340.15 254.218 338.959V338.939C254.218 337.748 254.088 336.719 253.828 335.854C253.567 334.988 253.193 334.32 252.705 333.852C252.223 333.376 251.637 333.139 250.947 333.139C250.27 333.139 249.687 333.376 249.199 333.852C248.717 334.32 248.346 334.988 248.086 335.854C247.832 336.719 247.705 337.748 247.705 338.939V338.959C247.705 340.15 247.832 341.182 248.086 342.055C248.346 342.921 248.717 343.591 249.199 344.066C249.687 344.542 250.27 344.779 250.947 344.779Z" fill="black"/>
<mask id="path-50-inside-1_25_927" fill="white">
<path d="M76 368H414V379H76V368Z"/>
</mask>
<path d="M414 379V378.5H76V379V379.5H414V379Z" fill="black" fill-opacity="0.12" mask="url(#path-50-inside-1_25_927)"/>
<path d="M80.6401 411V400.367H76.7803V399.022H85.9941V400.367H82.1343V411H80.6401ZM87.5563 411V402.052H89.0007V411H87.5563ZM88.2868 400.325C88.0156 400.325 87.7804 400.228 87.5812 400.035C87.3875 399.835 87.2907 399.6 87.2907 399.329C87.2907 399.052 87.3875 398.817 87.5812 398.624C87.7804 398.43 88.0156 398.333 88.2868 398.333C88.5635 398.333 88.7987 398.43 88.9924 398.624C89.186 398.817 89.2829 399.052 89.2829 399.329C89.2829 399.6 89.186 399.835 88.9924 400.035C88.7987 400.228 88.5635 400.325 88.2868 400.325ZM91.2933 411V402.052H92.7377V403.413H92.8705C93.0697 402.932 93.374 402.558 93.7836 402.292C94.1986 402.027 94.6994 401.894 95.286 401.894C95.69 401.894 96.0524 401.96 96.3734 402.093C96.6944 402.226 96.9711 402.411 97.2035 402.649C97.4359 402.882 97.6213 403.153 97.7596 403.463H97.8924C98.0529 403.147 98.2687 402.874 98.5399 402.641C98.8111 402.403 99.1237 402.221 99.4779 402.093C99.8376 401.96 100.222 401.894 100.632 401.894C101.24 401.894 101.755 402.007 102.176 402.234C102.602 402.461 102.925 402.793 103.147 403.23C103.368 403.662 103.479 404.191 103.479 404.816V411H102.035V405.148C102.035 404.705 101.965 404.34 101.827 404.052C101.694 403.759 101.489 403.54 101.213 403.396C100.936 403.247 100.587 403.172 100.167 403.172C99.7518 403.172 99.3893 403.266 99.0795 403.455C98.7696 403.643 98.5288 403.895 98.3573 404.21C98.1857 404.52 98.1 404.866 98.1 405.248V411H96.6556V404.924C96.6556 404.57 96.5782 404.263 96.4232 404.002C96.2738 403.737 96.058 403.532 95.7757 403.388C95.499 403.244 95.1726 403.172 94.7963 403.172C94.4089 403.172 94.0575 403.275 93.7421 403.479C93.4322 403.684 93.1859 403.961 93.0033 404.31C92.8262 404.653 92.7377 405.035 92.7377 405.455V411H91.2933ZM109.308 411.158C108.455 411.158 107.722 410.97 107.108 410.593C106.499 410.217 106.029 409.686 105.697 409C105.37 408.308 105.207 407.494 105.207 406.559V406.551C105.207 405.627 105.37 404.816 105.697 404.119C106.029 403.421 106.496 402.876 107.1 402.483C107.703 402.09 108.408 401.894 109.216 401.894C110.03 401.894 110.727 402.082 111.308 402.458C111.895 402.835 112.343 403.361 112.653 404.036C112.968 404.705 113.126 405.486 113.126 406.376V406.941H105.954V405.787H112.387L111.673 406.841V406.269C111.673 405.566 111.568 404.987 111.358 404.534C111.148 404.08 110.857 403.742 110.486 403.521C110.116 403.294 109.689 403.181 109.208 403.181C108.727 403.181 108.295 403.3 107.913 403.538C107.537 403.77 107.238 404.116 107.017 404.575C106.795 405.035 106.685 405.599 106.685 406.269V406.841C106.685 407.478 106.793 408.023 107.008 408.477C107.224 408.925 107.531 409.271 107.93 409.514C108.328 409.752 108.799 409.871 109.341 409.871C109.745 409.871 110.096 409.816 110.395 409.705C110.694 409.594 110.94 409.453 111.134 409.282C111.328 409.11 111.463 408.936 111.541 408.759L111.574 408.684H113.018L113.002 408.75C112.924 409.055 112.786 409.351 112.586 409.639C112.393 409.921 112.141 410.178 111.831 410.411C111.521 410.638 111.153 410.82 110.727 410.958C110.307 411.091 109.833 411.158 109.308 411.158Z" fill="black"/>
<rect x="328" y="388" width="86" height="34" rx="17" fill="#767680" fill-opacity="0.12"/>
<path d="M344.731 398.74C345.279 398.74 345.819 398.845 346.35 399.055C346.887 399.265 347.371 399.606 347.803 400.076C348.24 400.547 348.589 401.169 348.849 401.944C349.109 402.713 349.239 403.662 349.239 404.791V404.808C349.239 406.169 349.056 407.334 348.691 408.302C348.326 409.265 347.8 410.004 347.114 410.519C346.428 411.028 345.6 411.282 344.632 411.282C343.962 411.282 343.356 411.16 342.814 410.917C342.277 410.668 341.829 410.322 341.469 409.879C341.109 409.437 340.86 408.922 340.722 408.335L340.697 408.228H342.2L342.233 408.319C342.355 408.651 342.526 408.939 342.748 409.182C342.974 409.426 343.246 409.614 343.561 409.747C343.882 409.879 344.244 409.946 344.648 409.946C345.373 409.946 345.963 409.736 346.416 409.315C346.87 408.889 347.208 408.324 347.429 407.622C347.651 406.919 347.775 406.152 347.803 405.322C347.808 405.245 347.811 405.17 347.811 405.098C347.811 405.021 347.811 404.946 347.811 404.874L347.454 402.882C347.454 402.356 347.332 401.88 347.089 401.454C346.851 401.028 346.527 400.69 346.118 400.441C345.714 400.187 345.257 400.06 344.748 400.06C344.25 400.06 343.796 400.184 343.387 400.433C342.977 400.677 342.651 401.009 342.407 401.429C342.164 401.844 342.042 402.312 342.042 402.832V402.849C342.042 403.38 342.158 403.853 342.391 404.268C342.623 404.678 342.941 405.001 343.345 405.239C343.749 405.472 344.208 405.588 344.723 405.588C345.243 405.588 345.708 405.472 346.118 405.239C346.527 405.007 346.851 404.689 347.089 404.285C347.332 403.875 347.454 403.41 347.454 402.89V402.882H347.944V405.04H347.653C347.509 405.367 347.288 405.671 346.989 405.953C346.696 406.235 346.336 406.462 345.91 406.634C345.49 406.805 345.008 406.891 344.466 406.891C343.719 406.891 343.049 406.717 342.457 406.368C341.865 406.02 341.397 405.544 341.054 404.94C340.711 404.332 340.54 403.646 340.54 402.882V402.865C340.54 402.068 340.719 401.36 341.079 400.74C341.444 400.115 341.942 399.625 342.573 399.271C343.21 398.917 343.929 398.74 344.731 398.74ZM352.395 409.298C352.101 409.298 351.847 409.193 351.631 408.983C351.421 408.767 351.316 408.513 351.316 408.219C351.316 407.92 351.421 407.666 351.631 407.456C351.847 407.245 352.101 407.14 352.395 407.14C352.693 407.14 352.948 407.245 353.158 407.456C353.369 407.666 353.474 407.92 353.474 408.219C353.474 408.513 353.369 408.767 353.158 408.983C352.948 409.193 352.693 409.298 352.395 409.298ZM352.395 402.874C352.101 402.874 351.847 402.768 351.631 402.558C351.421 402.342 351.316 402.088 351.316 401.794C351.316 401.496 351.421 401.241 351.631 401.031C351.847 400.82 352.101 400.715 352.395 400.715C352.693 400.715 352.948 400.82 353.158 401.031C353.369 401.241 353.474 401.496 353.474 401.794C353.474 402.088 353.369 402.342 353.158 402.558C352.948 402.768 352.693 402.874 352.395 402.874ZM361.295 411V408.518H355.459V407.157C355.786 406.614 356.118 406.067 356.455 405.513C356.793 404.954 357.133 404.398 357.476 403.845C357.825 403.286 358.174 402.732 358.522 402.185C358.871 401.637 359.217 401.097 359.56 400.566C359.909 400.035 360.252 399.52 360.589 399.022H362.756V407.182H364.457V408.518H362.756V411H361.295ZM356.987 407.19H361.303V400.408H361.203C360.932 400.812 360.656 401.233 360.373 401.67C360.091 402.102 359.803 402.544 359.51 402.998C359.222 403.452 358.935 403.908 358.647 404.368C358.359 404.827 358.074 405.286 357.792 405.746C357.515 406.199 357.247 406.648 356.987 407.09V407.19ZM369.099 411V400.682H368.966L365.92 402.89V401.313L369.107 399.022H370.593V411H369.099ZM377.212 411L381.628 399.022H382.774V400.956H382.301L378.781 411H377.212ZM379.213 407.572L379.678 406.302H385.09L385.555 407.572H379.213ZM385.953 411L382.433 400.956V399.022H383.106L387.522 411H385.953ZM389.192 411V399.022H390.927L395.027 409.016H395.16L399.261 399.022H400.996V411H399.601V401.853H398.871L400.547 399.354L395.725 411H394.463L389.648 399.354L391.317 401.853H390.586V411H389.192Z" fill="black"/>
</g>
</g>
<defs>
<filter id="filter0_d_25_927" x="0" y="0" width="490" height="519" filterUnits="userSpaceOnUse" color-interpolation-filters="sRGB">
<feFlood flood-opacity="0" result="BackgroundImageFix"/>
<feColorMatrix in="SourceAlpha" type="matrix" values="0 0 0 0 0 0 0 0 0 0 0 0 0 0 0 0 0 0 127 0" result="hardAlpha"/>
<feOffset dy="10"/>
<feGaussianBlur stdDeviation="30"/>
<feComposite in2="hardAlpha" operator="out"/>
<feColorMatrix type="matrix" values="0 0 0 0 0 0 0 0 0 0 0 0 0 0 0 0 0 0 0.1 0"/>
<feBlend mode="normal" in2="BackgroundImageFix" result="effect1_dropShadow_25_927"/>
<feBlend mode="normal" in="SourceGraphic" in2="effect1_dropShadow_25_927" result="shape"/>
</filter>
<clipPath id="clip0_25_927">
<rect x="60" y="50" width="370" height="399" rx="13" fill="white"/>
</clipPath>
<clipPath id="clip1_25_927">
<rect width="370" height="399" fill="white" transform="translate(60 50)"/>
</clipPath>
</defs>
</svg>
