<svg width="18" height="18" viewBox="0 0 18 18" fill="none" xmlns="http://www.w3.org/2000/svg">
<path fill-rule="evenodd" clip-rule="evenodd" d="M9.402 0.116837C9.28181 0.0405245 9.14237 0 9 0C8.85763 0 8.71819 0.0405245 8.598 0.116837L0.348 5.36684C0.241396 5.43452 0.153607 5.52802 0.0927722 5.63868C0.0319378 5.74934 2.75276e-05 5.87356 0 5.99984V17.2498C0 17.4487 0.0790178 17.6395 0.21967 17.7802C0.360322 17.9208 0.551088 17.9998 0.75 17.9998H17.25C17.4489 17.9998 17.6397 17.9208 17.7803 17.7802C17.921 17.6395 18 17.4487 18 17.2498V5.99984C18 5.87356 17.9681 5.74934 17.9072 5.63868C17.8464 5.52802 17.7586 5.43452 17.652 5.36684L9.402 0.116837ZM4.5 13.4998H13.5V11.9998H4.5V13.4998Z" fill="white"/>
</svg>
