<svg width="24" height="24" viewBox="0 0 24 24" fill="none" xmlns="http://www.w3.org/2000/svg">
<path fill-rule="evenodd" clip-rule="evenodd" d="M5.25 1.5C5.05109 1.5 4.86032 1.57902 4.71967 1.71967C4.57902 1.86032 4.5 2.05109 4.5 2.25V21.75C4.5 21.9489 4.57902 22.1397 4.71967 22.2803C4.86032 22.421 5.05109 22.5 5.25 22.5H18.75C18.9489 22.5 19.1397 22.421 19.2803 22.2803C19.421 22.1397 19.5 21.9489 19.5 21.75V7.5C19.5002 7.40144 19.4809 7.30382 19.4433 7.2127C19.4058 7.12159 19.3506 7.03878 19.281 6.969L14.031 1.719C13.9612 1.6494 13.8784 1.59423 13.7873 1.55665C13.6962 1.51908 13.5986 1.49982 13.5 1.5H5.25ZM16.9395 6.75L14.25 4.0605V6.75H16.9395ZM11.25 8.25H7.5V6.75H11.25V8.25ZM16.5 12.75H7.5V11.25H16.5V12.75ZM7.5 17.25H16.5V15.75H7.5V17.25Z" fill="white"/>
</svg>
